G04 #@! TF.GenerationSoftware,KiCad,Pcbnew,5.1.5-52549c5~86~ubuntu18.04.1*
G04 #@! TF.CreationDate,2020-04-22T12:19:36+02:00*
G04 #@! TF.ProjectId,NODEMCU_PLACA_CENTRAL,4e4f4445-4d43-4555-9f50-4c4143415f43,rev?*
G04 #@! TF.SameCoordinates,Original*
G04 #@! TF.FileFunction,Legend,Top*
G04 #@! TF.FilePolarity,Positive*
%FSLAX46Y46*%
G04 Gerber Fmt 4.6, Leading zero omitted, Abs format (unit mm)*
G04 Created by KiCad (PCBNEW 5.1.5-52549c5~86~ubuntu18.04.1) date 2020-04-22 12:19:36*
%MOMM*%
%LPD*%
G04 APERTURE LIST*
%ADD10C,0.120000*%
%ADD11C,0.150000*%
G04 APERTURE END LIST*
D10*
X162500000Y-110550000D02*
X165160000Y-110550000D01*
X162500000Y-107950000D02*
X162500000Y-110550000D01*
X165160000Y-107950000D02*
X165160000Y-110550000D01*
X162500000Y-107950000D02*
X165160000Y-107950000D01*
X162500000Y-106680000D02*
X162500000Y-105350000D01*
X162500000Y-105350000D02*
X163830000Y-105350000D01*
X162110000Y-100329538D02*
G75*
G03X167660000Y-101874830I2990000J-462D01*
G01*
X162110000Y-100330462D02*
G75*
G02X167660000Y-98785170I2990000J462D01*
G01*
X167600000Y-100330000D02*
G75*
G03X167600000Y-100330000I-2500000J0D01*
G01*
X167660000Y-101875000D02*
X167660000Y-98785000D01*
X119320000Y-120590000D02*
X120650000Y-120590000D01*
X119320000Y-121920000D02*
X119320000Y-120590000D01*
X119320000Y-123190000D02*
X121980000Y-123190000D01*
X121980000Y-123190000D02*
X121980000Y-125790000D01*
X119320000Y-123190000D02*
X119320000Y-125790000D01*
X119320000Y-125790000D02*
X121980000Y-125790000D01*
X162500000Y-95310000D02*
X165160000Y-95310000D01*
X162500000Y-87630000D02*
X162500000Y-95310000D01*
X165160000Y-87630000D02*
X165160000Y-95310000D01*
X162500000Y-87630000D02*
X165160000Y-87630000D01*
X162500000Y-86360000D02*
X162500000Y-85030000D01*
X162500000Y-85030000D02*
X163830000Y-85030000D01*
X163830000Y-125960000D02*
X163830000Y-125270000D01*
X163830000Y-115340000D02*
X163830000Y-116030000D01*
X165550000Y-125270000D02*
X165550000Y-116030000D01*
X162110000Y-125270000D02*
X165550000Y-125270000D01*
X162110000Y-116030000D02*
X162110000Y-125270000D01*
X165550000Y-116030000D02*
X162110000Y-116030000D01*
X118930000Y-111300000D02*
X122370000Y-111300000D01*
X122370000Y-111300000D02*
X122370000Y-102060000D01*
X122370000Y-102060000D02*
X118930000Y-102060000D01*
X118930000Y-102060000D02*
X118930000Y-111300000D01*
X120650000Y-111990000D02*
X120650000Y-111300000D01*
X120650000Y-101370000D02*
X120650000Y-102060000D01*
X117690000Y-87360000D02*
X117690000Y-91860000D01*
X121690000Y-86110000D02*
X120190000Y-86110000D01*
X124190000Y-91860000D02*
X124190000Y-87360000D01*
X120190000Y-93110000D02*
X121690000Y-93110000D01*
D11*
X156295001Y-130885001D02*
X146125001Y-130885001D01*
X147815001Y-89755001D02*
X136815001Y-89755001D01*
X147815001Y-82625001D02*
X147815001Y-89755001D01*
X136815001Y-89755001D02*
X136815001Y-82625001D01*
X138515001Y-131885001D02*
X138515001Y-126155001D01*
X138515001Y-126155001D02*
X146115001Y-126155001D01*
X146115001Y-126155001D02*
X146115001Y-131885001D01*
X146115001Y-131885001D02*
X138515001Y-131885001D01*
X128345001Y-82625001D02*
G75*
G03X127075001Y-83895001I0J-1270000D01*
G01*
X157555001Y-83895001D02*
G75*
G03X156285001Y-82625001I-1270000J0D01*
G01*
X156285001Y-130885001D02*
G75*
G03X157555001Y-129615001I0J1270000D01*
G01*
X127075001Y-129615001D02*
G75*
G03X128345001Y-130885001I1270000J0D01*
G01*
X157555001Y-83895001D02*
X157555001Y-129615001D01*
X127075001Y-83895001D02*
X127075001Y-129615001D01*
X138515001Y-130885001D02*
X128345001Y-130885001D01*
X156811052Y-128345001D02*
G75*
G03X156811052Y-128345001I-1796051J0D01*
G01*
X131411052Y-128345001D02*
G75*
G03X131411052Y-128345001I-1796051J0D01*
G01*
X131411052Y-85165001D02*
G75*
G03X131411052Y-85165001I-1796051J0D01*
G01*
X156811052Y-85165001D02*
G75*
G03X156811052Y-85165001I-1796051J0D01*
G01*
X156285001Y-82625001D02*
X128345001Y-82625001D01*
X162949047Y-104278571D02*
X163091904Y-104326190D01*
X163139523Y-104373809D01*
X163187142Y-104469047D01*
X163187142Y-104611904D01*
X163139523Y-104707142D01*
X163091904Y-104754761D01*
X162996666Y-104802380D01*
X162615714Y-104802380D01*
X162615714Y-103802380D01*
X162949047Y-103802380D01*
X163044285Y-103850000D01*
X163091904Y-103897619D01*
X163139523Y-103992857D01*
X163139523Y-104088095D01*
X163091904Y-104183333D01*
X163044285Y-104230952D01*
X162949047Y-104278571D01*
X162615714Y-104278571D01*
X163520476Y-103802380D02*
X164187142Y-103802380D01*
X163520476Y-104802380D01*
X164187142Y-104802380D01*
X165091904Y-104802380D02*
X164520476Y-104802380D01*
X164806190Y-104802380D02*
X164806190Y-103802380D01*
X164710952Y-103945238D01*
X164615714Y-104040476D01*
X164520476Y-104088095D01*
X164361904Y-104742380D02*
X164361904Y-103742380D01*
X164600000Y-103742380D01*
X164742857Y-103790000D01*
X164838095Y-103885238D01*
X164885714Y-103980476D01*
X164933333Y-104170952D01*
X164933333Y-104313809D01*
X164885714Y-104504285D01*
X164838095Y-104599523D01*
X164742857Y-104694761D01*
X164600000Y-104742380D01*
X164361904Y-104742380D01*
X165885714Y-104742380D02*
X165314285Y-104742380D01*
X165600000Y-104742380D02*
X165600000Y-103742380D01*
X165504761Y-103885238D01*
X165409523Y-103980476D01*
X165314285Y-104028095D01*
X120316666Y-119042380D02*
X120316666Y-119756666D01*
X120269047Y-119899523D01*
X120173809Y-119994761D01*
X120030952Y-120042380D01*
X119935714Y-120042380D01*
X121316666Y-120042380D02*
X120745238Y-120042380D01*
X121030952Y-120042380D02*
X121030952Y-119042380D01*
X120935714Y-119185238D01*
X120840476Y-119280476D01*
X120745238Y-119328095D01*
X163258571Y-83482380D02*
X163449047Y-83482380D01*
X163544285Y-83530000D01*
X163639523Y-83625238D01*
X163687142Y-83815714D01*
X163687142Y-84149047D01*
X163639523Y-84339523D01*
X163544285Y-84434761D01*
X163449047Y-84482380D01*
X163258571Y-84482380D01*
X163163333Y-84434761D01*
X163068095Y-84339523D01*
X163020476Y-84149047D01*
X163020476Y-83815714D01*
X163068095Y-83625238D01*
X163163333Y-83530000D01*
X163258571Y-83482380D01*
X164639523Y-84482380D02*
X164068095Y-84482380D01*
X164353809Y-84482380D02*
X164353809Y-83482380D01*
X164258571Y-83625238D01*
X164163333Y-83720476D01*
X164068095Y-83768095D01*
X167002380Y-120816666D02*
X166526190Y-121150000D01*
X167002380Y-121388095D02*
X166002380Y-121388095D01*
X166002380Y-121007142D01*
X166050000Y-120911904D01*
X166097619Y-120864285D01*
X166192857Y-120816666D01*
X166335714Y-120816666D01*
X166430952Y-120864285D01*
X166478571Y-120911904D01*
X166526190Y-121007142D01*
X166526190Y-121388095D01*
X167002380Y-119864285D02*
X167002380Y-120435714D01*
X167002380Y-120150000D02*
X166002380Y-120150000D01*
X166145238Y-120245238D01*
X166240476Y-120340476D01*
X166288095Y-120435714D01*
X118382380Y-106846666D02*
X117906190Y-107180000D01*
X118382380Y-107418095D02*
X117382380Y-107418095D01*
X117382380Y-107037142D01*
X117430000Y-106941904D01*
X117477619Y-106894285D01*
X117572857Y-106846666D01*
X117715714Y-106846666D01*
X117810952Y-106894285D01*
X117858571Y-106941904D01*
X117906190Y-107037142D01*
X117906190Y-107418095D01*
X117477619Y-106465714D02*
X117430000Y-106418095D01*
X117382380Y-106322857D01*
X117382380Y-106084761D01*
X117430000Y-105989523D01*
X117477619Y-105941904D01*
X117572857Y-105894285D01*
X117668095Y-105894285D01*
X117810952Y-105941904D01*
X118382380Y-106513333D01*
X118382380Y-105894285D01*
X125594761Y-90943333D02*
X125642380Y-90800476D01*
X125642380Y-90562380D01*
X125594761Y-90467142D01*
X125547142Y-90419523D01*
X125451904Y-90371904D01*
X125356666Y-90371904D01*
X125261428Y-90419523D01*
X125213809Y-90467142D01*
X125166190Y-90562380D01*
X125118571Y-90752857D01*
X125070952Y-90848095D01*
X125023333Y-90895714D01*
X124928095Y-90943333D01*
X124832857Y-90943333D01*
X124737619Y-90895714D01*
X124690000Y-90848095D01*
X124642380Y-90752857D01*
X124642380Y-90514761D01*
X124690000Y-90371904D01*
X124642380Y-90038571D02*
X125642380Y-89800476D01*
X124928095Y-89610000D01*
X125642380Y-89419523D01*
X124642380Y-89181428D01*
X125642380Y-88276666D02*
X125642380Y-88848095D01*
X125642380Y-88562380D02*
X124642380Y-88562380D01*
X124785238Y-88657619D01*
X124880476Y-88752857D01*
X124928095Y-88848095D01*
X141553096Y-106207381D02*
X141553096Y-107016905D01*
X141600715Y-107112143D01*
X141648334Y-107159762D01*
X141743572Y-107207381D01*
X141934048Y-107207381D01*
X142029286Y-107159762D01*
X142076905Y-107112143D01*
X142124524Y-107016905D01*
X142124524Y-106207381D01*
X143124524Y-107207381D02*
X142553096Y-107207381D01*
X142838810Y-107207381D02*
X142838810Y-106207381D01*
X142743572Y-106350239D01*
X142648334Y-106445477D01*
X142553096Y-106493096D01*
X141053096Y-129067381D02*
X141053096Y-129876905D01*
X141100715Y-129972143D01*
X141148334Y-130019762D01*
X141243572Y-130067381D01*
X141434048Y-130067381D01*
X141529286Y-130019762D01*
X141576905Y-129972143D01*
X141624524Y-129876905D01*
X141624524Y-129067381D01*
X142053096Y-130019762D02*
X142195953Y-130067381D01*
X142434048Y-130067381D01*
X142529286Y-130019762D01*
X142576905Y-129972143D01*
X142624524Y-129876905D01*
X142624524Y-129781667D01*
X142576905Y-129686429D01*
X142529286Y-129638810D01*
X142434048Y-129591191D01*
X142243572Y-129543572D01*
X142148334Y-129495953D01*
X142100715Y-129448334D01*
X142053096Y-129353096D01*
X142053096Y-129257858D01*
X142100715Y-129162620D01*
X142148334Y-129115001D01*
X142243572Y-129067381D01*
X142481667Y-129067381D01*
X142624524Y-129115001D01*
X143386429Y-129543572D02*
X143529286Y-129591191D01*
X143576905Y-129638810D01*
X143624524Y-129734048D01*
X143624524Y-129876905D01*
X143576905Y-129972143D01*
X143529286Y-130019762D01*
X143434048Y-130067381D01*
X143053096Y-130067381D01*
X143053096Y-129067381D01*
X143386429Y-129067381D01*
X143481667Y-129115001D01*
X143529286Y-129162620D01*
X143576905Y-129257858D01*
X143576905Y-129353096D01*
X143529286Y-129448334D01*
X143481667Y-129495953D01*
X143386429Y-129543572D01*
X143053096Y-129543572D01*
X138862620Y-86887381D02*
X138529286Y-86411191D01*
X138291191Y-86887381D02*
X138291191Y-85887381D01*
X138672143Y-85887381D01*
X138767381Y-85935001D01*
X138815001Y-85982620D01*
X138862620Y-86077858D01*
X138862620Y-86220715D01*
X138815001Y-86315953D01*
X138767381Y-86363572D01*
X138672143Y-86411191D01*
X138291191Y-86411191D01*
X139624524Y-86363572D02*
X139291191Y-86363572D01*
X139291191Y-86887381D02*
X139291191Y-85887381D01*
X139767381Y-85887381D01*
X140862620Y-86601667D02*
X141338810Y-86601667D01*
X140767381Y-86887381D02*
X141100715Y-85887381D01*
X141434048Y-86887381D01*
X141767381Y-86220715D02*
X141767381Y-86887381D01*
X141767381Y-86315953D02*
X141815001Y-86268334D01*
X141910239Y-86220715D01*
X142053096Y-86220715D01*
X142148334Y-86268334D01*
X142195953Y-86363572D01*
X142195953Y-86887381D01*
X142529286Y-86220715D02*
X142910239Y-86220715D01*
X142672143Y-85887381D02*
X142672143Y-86744524D01*
X142719762Y-86839762D01*
X142815001Y-86887381D01*
X142910239Y-86887381D01*
X143624524Y-86839762D02*
X143529286Y-86887381D01*
X143338810Y-86887381D01*
X143243572Y-86839762D01*
X143195953Y-86744524D01*
X143195953Y-86363572D01*
X143243572Y-86268334D01*
X143338810Y-86220715D01*
X143529286Y-86220715D01*
X143624524Y-86268334D01*
X143672143Y-86363572D01*
X143672143Y-86458810D01*
X143195953Y-86554048D01*
X144100715Y-86220715D02*
X144100715Y-86887381D01*
X144100715Y-86315953D02*
X144148334Y-86268334D01*
X144243572Y-86220715D01*
X144386429Y-86220715D01*
X144481667Y-86268334D01*
X144529286Y-86363572D01*
X144529286Y-86887381D01*
X145005477Y-86220715D02*
X145005477Y-86887381D01*
X145005477Y-86315953D02*
X145053096Y-86268334D01*
X145148334Y-86220715D01*
X145291191Y-86220715D01*
X145386429Y-86268334D01*
X145434048Y-86363572D01*
X145434048Y-86887381D01*
X146338810Y-86887381D02*
X146338810Y-86363572D01*
X146291191Y-86268334D01*
X146195953Y-86220715D01*
X146005477Y-86220715D01*
X145910239Y-86268334D01*
X146338810Y-86839762D02*
X146243572Y-86887381D01*
X146005477Y-86887381D01*
X145910239Y-86839762D01*
X145862620Y-86744524D01*
X145862620Y-86649286D01*
X145910239Y-86554048D01*
X146005477Y-86506429D01*
X146243572Y-86506429D01*
X146338810Y-86458810D01*
X129789762Y-123987381D02*
X130123096Y-124987381D01*
X130456429Y-123987381D01*
X130789762Y-124987381D02*
X130789762Y-123987381D01*
X131265953Y-124987381D02*
X131265953Y-123987381D01*
X131837381Y-124987381D01*
X131837381Y-123987381D01*
X131146905Y-121495001D02*
X131051667Y-121447381D01*
X130908810Y-121447381D01*
X130765953Y-121495001D01*
X130670715Y-121590239D01*
X130623096Y-121685477D01*
X130575477Y-121875953D01*
X130575477Y-122018810D01*
X130623096Y-122209286D01*
X130670715Y-122304524D01*
X130765953Y-122399762D01*
X130908810Y-122447381D01*
X131004048Y-122447381D01*
X131146905Y-122399762D01*
X131194524Y-122352143D01*
X131194524Y-122018810D01*
X131004048Y-122018810D01*
X130337381Y-119907381D02*
X130004048Y-119431191D01*
X129765953Y-119907381D02*
X129765953Y-118907381D01*
X130146905Y-118907381D01*
X130242143Y-118955001D01*
X130289762Y-119002620D01*
X130337381Y-119097858D01*
X130337381Y-119240715D01*
X130289762Y-119335953D01*
X130242143Y-119383572D01*
X130146905Y-119431191D01*
X129765953Y-119431191D01*
X130718334Y-119859762D02*
X130861191Y-119907381D01*
X131099286Y-119907381D01*
X131194524Y-119859762D01*
X131242143Y-119812143D01*
X131289762Y-119716905D01*
X131289762Y-119621667D01*
X131242143Y-119526429D01*
X131194524Y-119478810D01*
X131099286Y-119431191D01*
X130908810Y-119383572D01*
X130813572Y-119335953D01*
X130765953Y-119288334D01*
X130718334Y-119193096D01*
X130718334Y-119097858D01*
X130765953Y-119002620D01*
X130813572Y-118955001D01*
X130908810Y-118907381D01*
X131146905Y-118907381D01*
X131289762Y-118955001D01*
X131575477Y-118907381D02*
X132146905Y-118907381D01*
X131861191Y-119907381D02*
X131861191Y-118907381D01*
X130146905Y-116843572D02*
X130480239Y-116843572D01*
X130623096Y-117367381D02*
X130146905Y-117367381D01*
X130146905Y-116367381D01*
X130623096Y-116367381D01*
X131051667Y-117367381D02*
X131051667Y-116367381D01*
X131623096Y-117367381D01*
X131623096Y-116367381D01*
X130123096Y-113827381D02*
X130742143Y-113827381D01*
X130408810Y-114208334D01*
X130551667Y-114208334D01*
X130646905Y-114255953D01*
X130694524Y-114303572D01*
X130742143Y-114398810D01*
X130742143Y-114636905D01*
X130694524Y-114732143D01*
X130646905Y-114779762D01*
X130551667Y-114827381D01*
X130265953Y-114827381D01*
X130170715Y-114779762D01*
X130123096Y-114732143D01*
X131027858Y-113827381D02*
X131361191Y-114827381D01*
X131694524Y-113827381D01*
X131146905Y-111335001D02*
X131051667Y-111287381D01*
X130908810Y-111287381D01*
X130765953Y-111335001D01*
X130670715Y-111430239D01*
X130623096Y-111525477D01*
X130575477Y-111715953D01*
X130575477Y-111858810D01*
X130623096Y-112049286D01*
X130670715Y-112144524D01*
X130765953Y-112239762D01*
X130908810Y-112287381D01*
X131004048Y-112287381D01*
X131146905Y-112239762D01*
X131194524Y-112192143D01*
X131194524Y-111858810D01*
X131004048Y-111858810D01*
X130099286Y-109699762D02*
X130242143Y-109747381D01*
X130480239Y-109747381D01*
X130575477Y-109699762D01*
X130623096Y-109652143D01*
X130670715Y-109556905D01*
X130670715Y-109461667D01*
X130623096Y-109366429D01*
X130575477Y-109318810D01*
X130480239Y-109271191D01*
X130289762Y-109223572D01*
X130194524Y-109175953D01*
X130146905Y-109128334D01*
X130099286Y-109033096D01*
X130099286Y-108937858D01*
X130146905Y-108842620D01*
X130194524Y-108795001D01*
X130289762Y-108747381D01*
X130527858Y-108747381D01*
X130670715Y-108795001D01*
X131099286Y-109747381D02*
X131099286Y-108747381D01*
X131670715Y-109747381D02*
X131242143Y-109175953D01*
X131670715Y-108747381D02*
X131099286Y-109318810D01*
X130075477Y-107159762D02*
X130218334Y-107207381D01*
X130456429Y-107207381D01*
X130551667Y-107159762D01*
X130599286Y-107112143D01*
X130646905Y-107016905D01*
X130646905Y-106921667D01*
X130599286Y-106826429D01*
X130551667Y-106778810D01*
X130456429Y-106731191D01*
X130265953Y-106683572D01*
X130170715Y-106635953D01*
X130123096Y-106588334D01*
X130075477Y-106493096D01*
X130075477Y-106397858D01*
X130123096Y-106302620D01*
X130170715Y-106255001D01*
X130265953Y-106207381D01*
X130504048Y-106207381D01*
X130646905Y-106255001D01*
X131265953Y-106207381D02*
X131456429Y-106207381D01*
X131551667Y-106255001D01*
X131646905Y-106350239D01*
X131694524Y-106540715D01*
X131694524Y-106874048D01*
X131646905Y-107064524D01*
X131551667Y-107159762D01*
X131456429Y-107207381D01*
X131265953Y-107207381D01*
X131170715Y-107159762D01*
X131075477Y-107064524D01*
X131027858Y-106874048D01*
X131027858Y-106540715D01*
X131075477Y-106350239D01*
X131170715Y-106255001D01*
X131265953Y-106207381D01*
X130099286Y-104619762D02*
X130242143Y-104667381D01*
X130480239Y-104667381D01*
X130575477Y-104619762D01*
X130623096Y-104572143D01*
X130670715Y-104476905D01*
X130670715Y-104381667D01*
X130623096Y-104286429D01*
X130575477Y-104238810D01*
X130480239Y-104191191D01*
X130289762Y-104143572D01*
X130194524Y-104095953D01*
X130146905Y-104048334D01*
X130099286Y-103953096D01*
X130099286Y-103857858D01*
X130146905Y-103762620D01*
X130194524Y-103715001D01*
X130289762Y-103667381D01*
X130527858Y-103667381D01*
X130670715Y-103715001D01*
X131670715Y-104572143D02*
X131623096Y-104619762D01*
X131480239Y-104667381D01*
X131385001Y-104667381D01*
X131242143Y-104619762D01*
X131146905Y-104524524D01*
X131099286Y-104429286D01*
X131051667Y-104238810D01*
X131051667Y-104095953D01*
X131099286Y-103905477D01*
X131146905Y-103810239D01*
X131242143Y-103715001D01*
X131385001Y-103667381D01*
X131480239Y-103667381D01*
X131623096Y-103715001D01*
X131670715Y-103762620D01*
X130123096Y-102079762D02*
X130265953Y-102127381D01*
X130504048Y-102127381D01*
X130599286Y-102079762D01*
X130646905Y-102032143D01*
X130694524Y-101936905D01*
X130694524Y-101841667D01*
X130646905Y-101746429D01*
X130599286Y-101698810D01*
X130504048Y-101651191D01*
X130313572Y-101603572D01*
X130218334Y-101555953D01*
X130170715Y-101508334D01*
X130123096Y-101413096D01*
X130123096Y-101317858D01*
X130170715Y-101222620D01*
X130218334Y-101175001D01*
X130313572Y-101127381D01*
X130551667Y-101127381D01*
X130694524Y-101175001D01*
X131646905Y-102127381D02*
X131075477Y-102127381D01*
X131361191Y-102127381D02*
X131361191Y-101127381D01*
X131265953Y-101270239D01*
X131170715Y-101365477D01*
X131075477Y-101413096D01*
X130123096Y-99539762D02*
X130265953Y-99587381D01*
X130504048Y-99587381D01*
X130599286Y-99539762D01*
X130646905Y-99492143D01*
X130694524Y-99396905D01*
X130694524Y-99301667D01*
X130646905Y-99206429D01*
X130599286Y-99158810D01*
X130504048Y-99111191D01*
X130313572Y-99063572D01*
X130218334Y-99015953D01*
X130170715Y-98968334D01*
X130123096Y-98873096D01*
X130123096Y-98777858D01*
X130170715Y-98682620D01*
X130218334Y-98635001D01*
X130313572Y-98587381D01*
X130551667Y-98587381D01*
X130694524Y-98635001D01*
X131075477Y-98682620D02*
X131123096Y-98635001D01*
X131218334Y-98587381D01*
X131456429Y-98587381D01*
X131551667Y-98635001D01*
X131599286Y-98682620D01*
X131646905Y-98777858D01*
X131646905Y-98873096D01*
X131599286Y-99015953D01*
X131027858Y-99587381D01*
X131646905Y-99587381D01*
X130123096Y-96999762D02*
X130265953Y-97047381D01*
X130504048Y-97047381D01*
X130599286Y-96999762D01*
X130646905Y-96952143D01*
X130694524Y-96856905D01*
X130694524Y-96761667D01*
X130646905Y-96666429D01*
X130599286Y-96618810D01*
X130504048Y-96571191D01*
X130313572Y-96523572D01*
X130218334Y-96475953D01*
X130170715Y-96428334D01*
X130123096Y-96333096D01*
X130123096Y-96237858D01*
X130170715Y-96142620D01*
X130218334Y-96095001D01*
X130313572Y-96047381D01*
X130551667Y-96047381D01*
X130694524Y-96095001D01*
X131027858Y-96047381D02*
X131646905Y-96047381D01*
X131313572Y-96428334D01*
X131456429Y-96428334D01*
X131551667Y-96475953D01*
X131599286Y-96523572D01*
X131646905Y-96618810D01*
X131646905Y-96856905D01*
X131599286Y-96952143D01*
X131551667Y-96999762D01*
X131456429Y-97047381D01*
X131170715Y-97047381D01*
X131075477Y-96999762D01*
X131027858Y-96952143D01*
X130027858Y-93507381D02*
X130361191Y-94507381D01*
X130694524Y-93507381D01*
X131027858Y-93507381D02*
X131027858Y-94316905D01*
X131075477Y-94412143D01*
X131123096Y-94459762D01*
X131218334Y-94507381D01*
X131408810Y-94507381D01*
X131504048Y-94459762D01*
X131551667Y-94412143D01*
X131599286Y-94316905D01*
X131599286Y-93507381D01*
X131146905Y-91015001D02*
X131051667Y-90967381D01*
X130908810Y-90967381D01*
X130765953Y-91015001D01*
X130670715Y-91110239D01*
X130623096Y-91205477D01*
X130575477Y-91395953D01*
X130575477Y-91538810D01*
X130623096Y-91729286D01*
X130670715Y-91824524D01*
X130765953Y-91919762D01*
X130908810Y-91967381D01*
X131004048Y-91967381D01*
X131146905Y-91919762D01*
X131194524Y-91872143D01*
X131194524Y-91538810D01*
X131004048Y-91538810D01*
X130170715Y-89141667D02*
X130646905Y-89141667D01*
X130075477Y-89427381D02*
X130408810Y-88427381D01*
X130742143Y-89427381D01*
X131265953Y-88427381D02*
X131361191Y-88427381D01*
X131456429Y-88475001D01*
X131504048Y-88522620D01*
X131551667Y-88617858D01*
X131599286Y-88808334D01*
X131599286Y-89046429D01*
X131551667Y-89236905D01*
X131504048Y-89332143D01*
X131456429Y-89379762D01*
X131361191Y-89427381D01*
X131265953Y-89427381D01*
X131170715Y-89379762D01*
X131123096Y-89332143D01*
X131075477Y-89236905D01*
X131027858Y-89046429D01*
X131027858Y-88808334D01*
X131075477Y-88617858D01*
X131123096Y-88522620D01*
X131170715Y-88475001D01*
X131265953Y-88427381D01*
X152983096Y-123987381D02*
X153602143Y-123987381D01*
X153268810Y-124368334D01*
X153411667Y-124368334D01*
X153506905Y-124415953D01*
X153554524Y-124463572D01*
X153602143Y-124558810D01*
X153602143Y-124796905D01*
X153554524Y-124892143D01*
X153506905Y-124939762D01*
X153411667Y-124987381D01*
X153125953Y-124987381D01*
X153030715Y-124939762D01*
X152983096Y-124892143D01*
X153887858Y-123987381D02*
X154221191Y-124987381D01*
X154554524Y-123987381D01*
X154006905Y-121495001D02*
X153911667Y-121447381D01*
X153768810Y-121447381D01*
X153625953Y-121495001D01*
X153530715Y-121590239D01*
X153483096Y-121685477D01*
X153435477Y-121875953D01*
X153435477Y-122018810D01*
X153483096Y-122209286D01*
X153530715Y-122304524D01*
X153625953Y-122399762D01*
X153768810Y-122447381D01*
X153864048Y-122447381D01*
X154006905Y-122399762D01*
X154054524Y-122352143D01*
X154054524Y-122018810D01*
X153864048Y-122018810D01*
X152983096Y-118907381D02*
X153554524Y-118907381D01*
X153268810Y-119907381D02*
X153268810Y-118907381D01*
X153792620Y-118907381D02*
X154459286Y-119907381D01*
X154459286Y-118907381D02*
X153792620Y-119907381D01*
X153578334Y-117367381D02*
X153245001Y-116891191D01*
X153006905Y-117367381D02*
X153006905Y-116367381D01*
X153387858Y-116367381D01*
X153483096Y-116415001D01*
X153530715Y-116462620D01*
X153578334Y-116557858D01*
X153578334Y-116700715D01*
X153530715Y-116795953D01*
X153483096Y-116843572D01*
X153387858Y-116891191D01*
X153006905Y-116891191D01*
X153911667Y-116367381D02*
X154578334Y-117367381D01*
X154578334Y-116367381D02*
X153911667Y-117367381D01*
X153006905Y-114827381D02*
X153006905Y-113827381D01*
X153245001Y-113827381D01*
X153387858Y-113875001D01*
X153483096Y-113970239D01*
X153530715Y-114065477D01*
X153578334Y-114255953D01*
X153578334Y-114398810D01*
X153530715Y-114589286D01*
X153483096Y-114684524D01*
X153387858Y-114779762D01*
X153245001Y-114827381D01*
X153006905Y-114827381D01*
X154149762Y-114255953D02*
X154054524Y-114208334D01*
X154006905Y-114160715D01*
X153959286Y-114065477D01*
X153959286Y-114017858D01*
X154006905Y-113922620D01*
X154054524Y-113875001D01*
X154149762Y-113827381D01*
X154340239Y-113827381D01*
X154435477Y-113875001D01*
X154483096Y-113922620D01*
X154530715Y-114017858D01*
X154530715Y-114065477D01*
X154483096Y-114160715D01*
X154435477Y-114208334D01*
X154340239Y-114255953D01*
X154149762Y-114255953D01*
X154054524Y-114303572D01*
X154006905Y-114351191D01*
X153959286Y-114446429D01*
X153959286Y-114636905D01*
X154006905Y-114732143D01*
X154054524Y-114779762D01*
X154149762Y-114827381D01*
X154340239Y-114827381D01*
X154435477Y-114779762D01*
X154483096Y-114732143D01*
X154530715Y-114636905D01*
X154530715Y-114446429D01*
X154483096Y-114351191D01*
X154435477Y-114303572D01*
X154340239Y-114255953D01*
X153006905Y-112287381D02*
X153006905Y-111287381D01*
X153245001Y-111287381D01*
X153387858Y-111335001D01*
X153483096Y-111430239D01*
X153530715Y-111525477D01*
X153578334Y-111715953D01*
X153578334Y-111858810D01*
X153530715Y-112049286D01*
X153483096Y-112144524D01*
X153387858Y-112239762D01*
X153245001Y-112287381D01*
X153006905Y-112287381D01*
X153911667Y-111287381D02*
X154578334Y-111287381D01*
X154149762Y-112287381D01*
X153006905Y-109747381D02*
X153006905Y-108747381D01*
X153245001Y-108747381D01*
X153387858Y-108795001D01*
X153483096Y-108890239D01*
X153530715Y-108985477D01*
X153578334Y-109175953D01*
X153578334Y-109318810D01*
X153530715Y-109509286D01*
X153483096Y-109604524D01*
X153387858Y-109699762D01*
X153245001Y-109747381D01*
X153006905Y-109747381D01*
X154435477Y-108747381D02*
X154245001Y-108747381D01*
X154149762Y-108795001D01*
X154102143Y-108842620D01*
X154006905Y-108985477D01*
X153959286Y-109175953D01*
X153959286Y-109556905D01*
X154006905Y-109652143D01*
X154054524Y-109699762D01*
X154149762Y-109747381D01*
X154340239Y-109747381D01*
X154435477Y-109699762D01*
X154483096Y-109652143D01*
X154530715Y-109556905D01*
X154530715Y-109318810D01*
X154483096Y-109223572D01*
X154435477Y-109175953D01*
X154340239Y-109128334D01*
X154149762Y-109128334D01*
X154054524Y-109175953D01*
X154006905Y-109223572D01*
X153959286Y-109318810D01*
X153006905Y-107207381D02*
X153006905Y-106207381D01*
X153245001Y-106207381D01*
X153387858Y-106255001D01*
X153483096Y-106350239D01*
X153530715Y-106445477D01*
X153578334Y-106635953D01*
X153578334Y-106778810D01*
X153530715Y-106969286D01*
X153483096Y-107064524D01*
X153387858Y-107159762D01*
X153245001Y-107207381D01*
X153006905Y-107207381D01*
X154483096Y-106207381D02*
X154006905Y-106207381D01*
X153959286Y-106683572D01*
X154006905Y-106635953D01*
X154102143Y-106588334D01*
X154340239Y-106588334D01*
X154435477Y-106635953D01*
X154483096Y-106683572D01*
X154530715Y-106778810D01*
X154530715Y-107016905D01*
X154483096Y-107112143D01*
X154435477Y-107159762D01*
X154340239Y-107207381D01*
X154102143Y-107207381D01*
X154006905Y-107159762D01*
X153959286Y-107112143D01*
X154006905Y-103715001D02*
X153911667Y-103667381D01*
X153768810Y-103667381D01*
X153625953Y-103715001D01*
X153530715Y-103810239D01*
X153483096Y-103905477D01*
X153435477Y-104095953D01*
X153435477Y-104238810D01*
X153483096Y-104429286D01*
X153530715Y-104524524D01*
X153625953Y-104619762D01*
X153768810Y-104667381D01*
X153864048Y-104667381D01*
X154006905Y-104619762D01*
X154054524Y-104572143D01*
X154054524Y-104238810D01*
X153864048Y-104238810D01*
X152983096Y-101127381D02*
X153602143Y-101127381D01*
X153268810Y-101508334D01*
X153411667Y-101508334D01*
X153506905Y-101555953D01*
X153554524Y-101603572D01*
X153602143Y-101698810D01*
X153602143Y-101936905D01*
X153554524Y-102032143D01*
X153506905Y-102079762D01*
X153411667Y-102127381D01*
X153125953Y-102127381D01*
X153030715Y-102079762D01*
X152983096Y-102032143D01*
X153887858Y-101127381D02*
X154221191Y-102127381D01*
X154554524Y-101127381D01*
X153006905Y-99587381D02*
X153006905Y-98587381D01*
X153245001Y-98587381D01*
X153387858Y-98635001D01*
X153483096Y-98730239D01*
X153530715Y-98825477D01*
X153578334Y-99015953D01*
X153578334Y-99158810D01*
X153530715Y-99349286D01*
X153483096Y-99444524D01*
X153387858Y-99539762D01*
X153245001Y-99587381D01*
X153006905Y-99587381D01*
X154435477Y-98920715D02*
X154435477Y-99587381D01*
X154197381Y-98539762D02*
X153959286Y-99254048D01*
X154578334Y-99254048D01*
X153006905Y-97047381D02*
X153006905Y-96047381D01*
X153245001Y-96047381D01*
X153387858Y-96095001D01*
X153483096Y-96190239D01*
X153530715Y-96285477D01*
X153578334Y-96475953D01*
X153578334Y-96618810D01*
X153530715Y-96809286D01*
X153483096Y-96904524D01*
X153387858Y-96999762D01*
X153245001Y-97047381D01*
X153006905Y-97047381D01*
X153911667Y-96047381D02*
X154530715Y-96047381D01*
X154197381Y-96428334D01*
X154340239Y-96428334D01*
X154435477Y-96475953D01*
X154483096Y-96523572D01*
X154530715Y-96618810D01*
X154530715Y-96856905D01*
X154483096Y-96952143D01*
X154435477Y-96999762D01*
X154340239Y-97047381D01*
X154054524Y-97047381D01*
X153959286Y-96999762D01*
X153911667Y-96952143D01*
X153006905Y-94507381D02*
X153006905Y-93507381D01*
X153245001Y-93507381D01*
X153387858Y-93555001D01*
X153483096Y-93650239D01*
X153530715Y-93745477D01*
X153578334Y-93935953D01*
X153578334Y-94078810D01*
X153530715Y-94269286D01*
X153483096Y-94364524D01*
X153387858Y-94459762D01*
X153245001Y-94507381D01*
X153006905Y-94507381D01*
X153959286Y-93602620D02*
X154006905Y-93555001D01*
X154102143Y-93507381D01*
X154340239Y-93507381D01*
X154435477Y-93555001D01*
X154483096Y-93602620D01*
X154530715Y-93697858D01*
X154530715Y-93793096D01*
X154483096Y-93935953D01*
X153911667Y-94507381D01*
X154530715Y-94507381D01*
X153006905Y-91967381D02*
X153006905Y-90967381D01*
X153245001Y-90967381D01*
X153387858Y-91015001D01*
X153483096Y-91110239D01*
X153530715Y-91205477D01*
X153578334Y-91395953D01*
X153578334Y-91538810D01*
X153530715Y-91729286D01*
X153483096Y-91824524D01*
X153387858Y-91919762D01*
X153245001Y-91967381D01*
X153006905Y-91967381D01*
X154530715Y-91967381D02*
X153959286Y-91967381D01*
X154245001Y-91967381D02*
X154245001Y-90967381D01*
X154149762Y-91110239D01*
X154054524Y-91205477D01*
X153959286Y-91253096D01*
X153006905Y-89427381D02*
X153006905Y-88427381D01*
X153245001Y-88427381D01*
X153387858Y-88475001D01*
X153483096Y-88570239D01*
X153530715Y-88665477D01*
X153578334Y-88855953D01*
X153578334Y-88998810D01*
X153530715Y-89189286D01*
X153483096Y-89284524D01*
X153387858Y-89379762D01*
X153245001Y-89427381D01*
X153006905Y-89427381D01*
X154197381Y-88427381D02*
X154292620Y-88427381D01*
X154387858Y-88475001D01*
X154435477Y-88522620D01*
X154483096Y-88617858D01*
X154530715Y-88808334D01*
X154530715Y-89046429D01*
X154483096Y-89236905D01*
X154435477Y-89332143D01*
X154387858Y-89379762D01*
X154292620Y-89427381D01*
X154197381Y-89427381D01*
X154102143Y-89379762D01*
X154054524Y-89332143D01*
X154006905Y-89236905D01*
X153959286Y-89046429D01*
X153959286Y-88808334D01*
X154006905Y-88617858D01*
X154054524Y-88522620D01*
X154102143Y-88475001D01*
X154197381Y-88427381D01*
M02*
