M48
; DRILL file {KiCad 5.1.5-52549c5~86~ubuntu18.04.1} date mar 21 abr 2020 17:43:36 CEST
; FORMAT={-:-/ absolute / inch / decimal}
; #@! TF.CreationDate,2020-04-21T17:43:36+02:00
; #@! TF.GenerationSoftware,Kicad,Pcbnew,5.1.5-52549c5~86~ubuntu18.04.1
FMAT,2
INCH
T1C0.0300
T2C0.0354
T3C0.0394
T4C0.0433
T5C0.0472
%
G90
G05
T1
X4.253Y-2.553
X4.253Y-2.653
X4.253Y-2.753
X4.253Y-2.853
X4.253Y-2.953
X4.253Y-3.053
X4.253Y-3.153
X4.253Y-3.253
X4.253Y-3.353
X4.253Y-3.453
X4.253Y-3.553
X4.253Y-3.653
X4.253Y-3.753
X4.253Y-3.853
X4.253Y-3.953
X5.353Y-2.553
X5.353Y-2.653
X5.353Y-2.753
X5.353Y-2.853
X5.353Y-2.953
X5.353Y-3.053
X5.353Y-3.153
X5.353Y-3.253
X5.353Y-3.353
X5.353Y-3.453
X5.353Y-3.553
X5.353Y-3.653
X5.353Y-3.753
X5.353Y-3.853
X5.353Y-3.953
T2
X5.65Y-3.05
X5.65Y-3.15
T3
X5.65Y-3.85
X5.65Y-3.95
T4
X5.5441Y-2.5728
X5.5441Y-2.75
X5.8Y-2.5728
X5.8Y-2.75
T5
X4.8Y-2.85
X4.8Y-3.15
X5.65Y-3.35
X5.65Y-3.65
T0
M30
