G04 #@! TF.GenerationSoftware,KiCad,Pcbnew,5.1.5-52549c5~86~ubuntu18.04.1*
G04 #@! TF.CreationDate,2020-04-21T17:43:41+02:00*
G04 #@! TF.ProjectId,NODEMCU_PLACA_EMISOR_V01B,4e4f4445-4d43-4555-9f50-4c4143415f45,V1.0*
G04 #@! TF.SameCoordinates,Original*
G04 #@! TF.FileFunction,Copper,L1,Top*
G04 #@! TF.FilePolarity,Positive*
%FSLAX46Y46*%
G04 Gerber Fmt 4.6, Leading zero omitted, Abs format (unit mm)*
G04 Created by KiCad (PCBNEW 5.1.5-52549c5~86~ubuntu18.04.1) date 2020-04-21 17:43:41*
%MOMM*%
%LPD*%
G04 APERTURE LIST*
%ADD10C,1.524000*%
%ADD11R,1.800000X1.800000*%
%ADD12C,1.800000*%
%ADD13R,1.700000X1.700000*%
%ADD14O,1.700000X1.700000*%
%ADD15C,2.400000*%
%ADD16O,2.400000X2.400000*%
%ADD17C,2.000000*%
G04 APERTURE END LIST*
D10*
X108025001Y-64845001D03*
X108025001Y-67385001D03*
X108025001Y-69925001D03*
X108025001Y-72465001D03*
X108025001Y-75005001D03*
X108025001Y-77545001D03*
X108025001Y-80085001D03*
X108025001Y-82625001D03*
X108025001Y-85165001D03*
X108025001Y-87705001D03*
X108025001Y-90245001D03*
X108025001Y-92785001D03*
X108025001Y-95325001D03*
X108025001Y-97865001D03*
X108025001Y-100405001D03*
X135965001Y-100405001D03*
X135965001Y-97865001D03*
X135965001Y-95325001D03*
X135965001Y-92785001D03*
X135965001Y-90245001D03*
X135965001Y-87705001D03*
X135965001Y-85165001D03*
X135965001Y-82625001D03*
X135965001Y-80085001D03*
X135965001Y-77545001D03*
X135965001Y-75005001D03*
X135965001Y-72465001D03*
X135965001Y-69925001D03*
X135965001Y-67385001D03*
X135965001Y-64845001D03*
D11*
X143510000Y-80010000D03*
D12*
X143510000Y-77470000D03*
D13*
X143510000Y-97790000D03*
D14*
X143510000Y-100330000D03*
D15*
X143510000Y-85090000D03*
D16*
X143510000Y-92710000D03*
X121920000Y-80010000D03*
D15*
X121920000Y-72390000D03*
D17*
X147320000Y-65350000D03*
X147320000Y-69850000D03*
X140820000Y-65350000D03*
X140820000Y-69850000D03*
M02*
