G04 #@! TF.GenerationSoftware,KiCad,Pcbnew,5.1.5-52549c5~86~ubuntu18.04.1*
G04 #@! TF.CreationDate,2020-04-21T17:43:41+02:00*
G04 #@! TF.ProjectId,NODEMCU_PLACA_EMISOR_V01B,4e4f4445-4d43-4555-9f50-4c4143415f45,V1.0*
G04 #@! TF.SameCoordinates,Original*
G04 #@! TF.FileFunction,Soldermask,Top*
G04 #@! TF.FilePolarity,Negative*
%FSLAX46Y46*%
G04 Gerber Fmt 4.6, Leading zero omitted, Abs format (unit mm)*
G04 Created by KiCad (PCBNEW 5.1.5-52549c5~86~ubuntu18.04.1) date 2020-04-21 17:43:41*
%MOMM*%
%LPD*%
G04 APERTURE LIST*
%ADD10C,0.100000*%
G04 APERTURE END LIST*
D10*
G36*
X143623512Y-99433927D02*
G01*
X143772812Y-99463624D01*
X143936784Y-99531544D01*
X144084354Y-99630147D01*
X144209853Y-99755646D01*
X144308456Y-99903216D01*
X144376376Y-100067188D01*
X144411000Y-100241259D01*
X144411000Y-100418741D01*
X144376376Y-100592812D01*
X144308456Y-100756784D01*
X144209853Y-100904354D01*
X144084354Y-101029853D01*
X143936784Y-101128456D01*
X143772812Y-101196376D01*
X143623512Y-101226073D01*
X143598742Y-101231000D01*
X143421258Y-101231000D01*
X143396488Y-101226073D01*
X143247188Y-101196376D01*
X143083216Y-101128456D01*
X142935646Y-101029853D01*
X142810147Y-100904354D01*
X142711544Y-100756784D01*
X142643624Y-100592812D01*
X142609000Y-100418741D01*
X142609000Y-100241259D01*
X142643624Y-100067188D01*
X142711544Y-99903216D01*
X142810147Y-99755646D01*
X142935646Y-99630147D01*
X143083216Y-99531544D01*
X143247188Y-99463624D01*
X143396488Y-99433927D01*
X143421258Y-99429000D01*
X143598742Y-99429000D01*
X143623512Y-99433927D01*
G37*
G36*
X136202143Y-99623243D02*
G01*
X136350102Y-99684530D01*
X136483256Y-99773500D01*
X136596502Y-99886746D01*
X136685472Y-100019900D01*
X136746759Y-100167859D01*
X136778001Y-100324926D01*
X136778001Y-100485076D01*
X136746759Y-100642143D01*
X136685472Y-100790102D01*
X136596502Y-100923256D01*
X136483256Y-101036502D01*
X136350102Y-101125472D01*
X136202143Y-101186759D01*
X136045076Y-101218001D01*
X135884926Y-101218001D01*
X135727859Y-101186759D01*
X135579900Y-101125472D01*
X135446746Y-101036502D01*
X135333500Y-100923256D01*
X135244530Y-100790102D01*
X135183243Y-100642143D01*
X135152001Y-100485076D01*
X135152001Y-100324926D01*
X135183243Y-100167859D01*
X135244530Y-100019900D01*
X135333500Y-99886746D01*
X135446746Y-99773500D01*
X135579900Y-99684530D01*
X135727859Y-99623243D01*
X135884926Y-99592001D01*
X136045076Y-99592001D01*
X136202143Y-99623243D01*
G37*
G36*
X108262143Y-99623243D02*
G01*
X108410102Y-99684530D01*
X108543256Y-99773500D01*
X108656502Y-99886746D01*
X108745472Y-100019900D01*
X108806759Y-100167859D01*
X108838001Y-100324926D01*
X108838001Y-100485076D01*
X108806759Y-100642143D01*
X108745472Y-100790102D01*
X108656502Y-100923256D01*
X108543256Y-101036502D01*
X108410102Y-101125472D01*
X108262143Y-101186759D01*
X108105076Y-101218001D01*
X107944926Y-101218001D01*
X107787859Y-101186759D01*
X107639900Y-101125472D01*
X107506746Y-101036502D01*
X107393500Y-100923256D01*
X107304530Y-100790102D01*
X107243243Y-100642143D01*
X107212001Y-100485076D01*
X107212001Y-100324926D01*
X107243243Y-100167859D01*
X107304530Y-100019900D01*
X107393500Y-99886746D01*
X107506746Y-99773500D01*
X107639900Y-99684530D01*
X107787859Y-99623243D01*
X107944926Y-99592001D01*
X108105076Y-99592001D01*
X108262143Y-99623243D01*
G37*
G36*
X144411000Y-98691000D02*
G01*
X142609000Y-98691000D01*
X142609000Y-96889000D01*
X144411000Y-96889000D01*
X144411000Y-98691000D01*
G37*
G36*
X136202143Y-97083243D02*
G01*
X136350102Y-97144530D01*
X136483256Y-97233500D01*
X136596502Y-97346746D01*
X136685472Y-97479900D01*
X136746759Y-97627859D01*
X136778001Y-97784926D01*
X136778001Y-97945076D01*
X136746759Y-98102143D01*
X136685472Y-98250102D01*
X136596502Y-98383256D01*
X136483256Y-98496502D01*
X136350102Y-98585472D01*
X136202143Y-98646759D01*
X136045076Y-98678001D01*
X135884926Y-98678001D01*
X135727859Y-98646759D01*
X135579900Y-98585472D01*
X135446746Y-98496502D01*
X135333500Y-98383256D01*
X135244530Y-98250102D01*
X135183243Y-98102143D01*
X135152001Y-97945076D01*
X135152001Y-97784926D01*
X135183243Y-97627859D01*
X135244530Y-97479900D01*
X135333500Y-97346746D01*
X135446746Y-97233500D01*
X135579900Y-97144530D01*
X135727859Y-97083243D01*
X135884926Y-97052001D01*
X136045076Y-97052001D01*
X136202143Y-97083243D01*
G37*
G36*
X108262143Y-97083243D02*
G01*
X108410102Y-97144530D01*
X108543256Y-97233500D01*
X108656502Y-97346746D01*
X108745472Y-97479900D01*
X108806759Y-97627859D01*
X108838001Y-97784926D01*
X108838001Y-97945076D01*
X108806759Y-98102143D01*
X108745472Y-98250102D01*
X108656502Y-98383256D01*
X108543256Y-98496502D01*
X108410102Y-98585472D01*
X108262143Y-98646759D01*
X108105076Y-98678001D01*
X107944926Y-98678001D01*
X107787859Y-98646759D01*
X107639900Y-98585472D01*
X107506746Y-98496502D01*
X107393500Y-98383256D01*
X107304530Y-98250102D01*
X107243243Y-98102143D01*
X107212001Y-97945076D01*
X107212001Y-97784926D01*
X107243243Y-97627859D01*
X107304530Y-97479900D01*
X107393500Y-97346746D01*
X107506746Y-97233500D01*
X107639900Y-97144530D01*
X107787859Y-97083243D01*
X107944926Y-97052001D01*
X108105076Y-97052001D01*
X108262143Y-97083243D01*
G37*
G36*
X108262143Y-94543243D02*
G01*
X108410102Y-94604530D01*
X108543256Y-94693500D01*
X108656502Y-94806746D01*
X108745472Y-94939900D01*
X108806759Y-95087859D01*
X108838001Y-95244926D01*
X108838001Y-95405076D01*
X108806759Y-95562143D01*
X108745472Y-95710102D01*
X108656502Y-95843256D01*
X108543256Y-95956502D01*
X108410102Y-96045472D01*
X108262143Y-96106759D01*
X108105076Y-96138001D01*
X107944926Y-96138001D01*
X107787859Y-96106759D01*
X107639900Y-96045472D01*
X107506746Y-95956502D01*
X107393500Y-95843256D01*
X107304530Y-95710102D01*
X107243243Y-95562143D01*
X107212001Y-95405076D01*
X107212001Y-95244926D01*
X107243243Y-95087859D01*
X107304530Y-94939900D01*
X107393500Y-94806746D01*
X107506746Y-94693500D01*
X107639900Y-94604530D01*
X107787859Y-94543243D01*
X107944926Y-94512001D01*
X108105076Y-94512001D01*
X108262143Y-94543243D01*
G37*
G36*
X136202143Y-94543243D02*
G01*
X136350102Y-94604530D01*
X136483256Y-94693500D01*
X136596502Y-94806746D01*
X136685472Y-94939900D01*
X136746759Y-95087859D01*
X136778001Y-95244926D01*
X136778001Y-95405076D01*
X136746759Y-95562143D01*
X136685472Y-95710102D01*
X136596502Y-95843256D01*
X136483256Y-95956502D01*
X136350102Y-96045472D01*
X136202143Y-96106759D01*
X136045076Y-96138001D01*
X135884926Y-96138001D01*
X135727859Y-96106759D01*
X135579900Y-96045472D01*
X135446746Y-95956502D01*
X135333500Y-95843256D01*
X135244530Y-95710102D01*
X135183243Y-95562143D01*
X135152001Y-95405076D01*
X135152001Y-95244926D01*
X135183243Y-95087859D01*
X135244530Y-94939900D01*
X135333500Y-94806746D01*
X135446746Y-94693500D01*
X135579900Y-94604530D01*
X135727859Y-94543243D01*
X135884926Y-94512001D01*
X136045076Y-94512001D01*
X136202143Y-94543243D01*
G37*
G36*
X143874903Y-91507075D02*
G01*
X144102571Y-91601378D01*
X144307466Y-91738285D01*
X144481715Y-91912534D01*
X144618622Y-92117429D01*
X144712925Y-92345097D01*
X144761000Y-92586787D01*
X144761000Y-92833213D01*
X144712925Y-93074903D01*
X144618622Y-93302571D01*
X144481715Y-93507466D01*
X144307466Y-93681715D01*
X144102571Y-93818622D01*
X144102570Y-93818623D01*
X144102569Y-93818623D01*
X143874903Y-93912925D01*
X143633214Y-93961000D01*
X143386786Y-93961000D01*
X143145097Y-93912925D01*
X142917431Y-93818623D01*
X142917430Y-93818623D01*
X142917429Y-93818622D01*
X142712534Y-93681715D01*
X142538285Y-93507466D01*
X142401378Y-93302571D01*
X142307075Y-93074903D01*
X142259000Y-92833213D01*
X142259000Y-92586787D01*
X142307075Y-92345097D01*
X142401378Y-92117429D01*
X142538285Y-91912534D01*
X142712534Y-91738285D01*
X142917429Y-91601378D01*
X143145097Y-91507075D01*
X143386786Y-91459000D01*
X143633214Y-91459000D01*
X143874903Y-91507075D01*
G37*
G36*
X108262143Y-92003243D02*
G01*
X108410102Y-92064530D01*
X108543256Y-92153500D01*
X108656502Y-92266746D01*
X108745472Y-92399900D01*
X108806759Y-92547859D01*
X108838001Y-92704926D01*
X108838001Y-92865076D01*
X108806759Y-93022143D01*
X108745472Y-93170102D01*
X108656502Y-93303256D01*
X108543256Y-93416502D01*
X108410102Y-93505472D01*
X108262143Y-93566759D01*
X108105076Y-93598001D01*
X107944926Y-93598001D01*
X107787859Y-93566759D01*
X107639900Y-93505472D01*
X107506746Y-93416502D01*
X107393500Y-93303256D01*
X107304530Y-93170102D01*
X107243243Y-93022143D01*
X107212001Y-92865076D01*
X107212001Y-92704926D01*
X107243243Y-92547859D01*
X107304530Y-92399900D01*
X107393500Y-92266746D01*
X107506746Y-92153500D01*
X107639900Y-92064530D01*
X107787859Y-92003243D01*
X107944926Y-91972001D01*
X108105076Y-91972001D01*
X108262143Y-92003243D01*
G37*
G36*
X136202143Y-92003243D02*
G01*
X136350102Y-92064530D01*
X136483256Y-92153500D01*
X136596502Y-92266746D01*
X136685472Y-92399900D01*
X136746759Y-92547859D01*
X136778001Y-92704926D01*
X136778001Y-92865076D01*
X136746759Y-93022143D01*
X136685472Y-93170102D01*
X136596502Y-93303256D01*
X136483256Y-93416502D01*
X136350102Y-93505472D01*
X136202143Y-93566759D01*
X136045076Y-93598001D01*
X135884926Y-93598001D01*
X135727859Y-93566759D01*
X135579900Y-93505472D01*
X135446746Y-93416502D01*
X135333500Y-93303256D01*
X135244530Y-93170102D01*
X135183243Y-93022143D01*
X135152001Y-92865076D01*
X135152001Y-92704926D01*
X135183243Y-92547859D01*
X135244530Y-92399900D01*
X135333500Y-92266746D01*
X135446746Y-92153500D01*
X135579900Y-92064530D01*
X135727859Y-92003243D01*
X135884926Y-91972001D01*
X136045076Y-91972001D01*
X136202143Y-92003243D01*
G37*
G36*
X136202143Y-89463243D02*
G01*
X136350102Y-89524530D01*
X136483256Y-89613500D01*
X136596502Y-89726746D01*
X136685472Y-89859900D01*
X136746759Y-90007859D01*
X136778001Y-90164926D01*
X136778001Y-90325076D01*
X136746759Y-90482143D01*
X136685472Y-90630102D01*
X136596502Y-90763256D01*
X136483256Y-90876502D01*
X136350102Y-90965472D01*
X136202143Y-91026759D01*
X136045076Y-91058001D01*
X135884926Y-91058001D01*
X135727859Y-91026759D01*
X135579900Y-90965472D01*
X135446746Y-90876502D01*
X135333500Y-90763256D01*
X135244530Y-90630102D01*
X135183243Y-90482143D01*
X135152001Y-90325076D01*
X135152001Y-90164926D01*
X135183243Y-90007859D01*
X135244530Y-89859900D01*
X135333500Y-89726746D01*
X135446746Y-89613500D01*
X135579900Y-89524530D01*
X135727859Y-89463243D01*
X135884926Y-89432001D01*
X136045076Y-89432001D01*
X136202143Y-89463243D01*
G37*
G36*
X108262143Y-89463243D02*
G01*
X108410102Y-89524530D01*
X108543256Y-89613500D01*
X108656502Y-89726746D01*
X108745472Y-89859900D01*
X108806759Y-90007859D01*
X108838001Y-90164926D01*
X108838001Y-90325076D01*
X108806759Y-90482143D01*
X108745472Y-90630102D01*
X108656502Y-90763256D01*
X108543256Y-90876502D01*
X108410102Y-90965472D01*
X108262143Y-91026759D01*
X108105076Y-91058001D01*
X107944926Y-91058001D01*
X107787859Y-91026759D01*
X107639900Y-90965472D01*
X107506746Y-90876502D01*
X107393500Y-90763256D01*
X107304530Y-90630102D01*
X107243243Y-90482143D01*
X107212001Y-90325076D01*
X107212001Y-90164926D01*
X107243243Y-90007859D01*
X107304530Y-89859900D01*
X107393500Y-89726746D01*
X107506746Y-89613500D01*
X107639900Y-89524530D01*
X107787859Y-89463243D01*
X107944926Y-89432001D01*
X108105076Y-89432001D01*
X108262143Y-89463243D01*
G37*
G36*
X136202143Y-86923243D02*
G01*
X136350102Y-86984530D01*
X136483256Y-87073500D01*
X136596502Y-87186746D01*
X136685472Y-87319900D01*
X136746759Y-87467859D01*
X136778001Y-87624926D01*
X136778001Y-87785076D01*
X136746759Y-87942143D01*
X136685472Y-88090102D01*
X136596502Y-88223256D01*
X136483256Y-88336502D01*
X136350102Y-88425472D01*
X136202143Y-88486759D01*
X136045076Y-88518001D01*
X135884926Y-88518001D01*
X135727859Y-88486759D01*
X135579900Y-88425472D01*
X135446746Y-88336502D01*
X135333500Y-88223256D01*
X135244530Y-88090102D01*
X135183243Y-87942143D01*
X135152001Y-87785076D01*
X135152001Y-87624926D01*
X135183243Y-87467859D01*
X135244530Y-87319900D01*
X135333500Y-87186746D01*
X135446746Y-87073500D01*
X135579900Y-86984530D01*
X135727859Y-86923243D01*
X135884926Y-86892001D01*
X136045076Y-86892001D01*
X136202143Y-86923243D01*
G37*
G36*
X108262143Y-86923243D02*
G01*
X108410102Y-86984530D01*
X108543256Y-87073500D01*
X108656502Y-87186746D01*
X108745472Y-87319900D01*
X108806759Y-87467859D01*
X108838001Y-87624926D01*
X108838001Y-87785076D01*
X108806759Y-87942143D01*
X108745472Y-88090102D01*
X108656502Y-88223256D01*
X108543256Y-88336502D01*
X108410102Y-88425472D01*
X108262143Y-88486759D01*
X108105076Y-88518001D01*
X107944926Y-88518001D01*
X107787859Y-88486759D01*
X107639900Y-88425472D01*
X107506746Y-88336502D01*
X107393500Y-88223256D01*
X107304530Y-88090102D01*
X107243243Y-87942143D01*
X107212001Y-87785076D01*
X107212001Y-87624926D01*
X107243243Y-87467859D01*
X107304530Y-87319900D01*
X107393500Y-87186746D01*
X107506746Y-87073500D01*
X107639900Y-86984530D01*
X107787859Y-86923243D01*
X107944926Y-86892001D01*
X108105076Y-86892001D01*
X108262143Y-86923243D01*
G37*
G36*
X143874903Y-83887075D02*
G01*
X144102571Y-83981378D01*
X144307466Y-84118285D01*
X144481715Y-84292534D01*
X144618622Y-84497429D01*
X144712925Y-84725097D01*
X144761000Y-84966787D01*
X144761000Y-85213213D01*
X144712925Y-85454903D01*
X144618622Y-85682571D01*
X144481715Y-85887466D01*
X144307466Y-86061715D01*
X144102571Y-86198622D01*
X144102570Y-86198623D01*
X144102569Y-86198623D01*
X143874903Y-86292925D01*
X143633214Y-86341000D01*
X143386786Y-86341000D01*
X143145097Y-86292925D01*
X142917431Y-86198623D01*
X142917430Y-86198623D01*
X142917429Y-86198622D01*
X142712534Y-86061715D01*
X142538285Y-85887466D01*
X142401378Y-85682571D01*
X142307075Y-85454903D01*
X142259000Y-85213213D01*
X142259000Y-84966787D01*
X142307075Y-84725097D01*
X142401378Y-84497429D01*
X142538285Y-84292534D01*
X142712534Y-84118285D01*
X142917429Y-83981378D01*
X143145097Y-83887075D01*
X143386786Y-83839000D01*
X143633214Y-83839000D01*
X143874903Y-83887075D01*
G37*
G36*
X108262143Y-84383243D02*
G01*
X108410102Y-84444530D01*
X108543256Y-84533500D01*
X108656502Y-84646746D01*
X108745472Y-84779900D01*
X108806759Y-84927859D01*
X108838001Y-85084926D01*
X108838001Y-85245076D01*
X108806759Y-85402143D01*
X108745472Y-85550102D01*
X108656502Y-85683256D01*
X108543256Y-85796502D01*
X108410102Y-85885472D01*
X108262143Y-85946759D01*
X108105076Y-85978001D01*
X107944926Y-85978001D01*
X107787859Y-85946759D01*
X107639900Y-85885472D01*
X107506746Y-85796502D01*
X107393500Y-85683256D01*
X107304530Y-85550102D01*
X107243243Y-85402143D01*
X107212001Y-85245076D01*
X107212001Y-85084926D01*
X107243243Y-84927859D01*
X107304530Y-84779900D01*
X107393500Y-84646746D01*
X107506746Y-84533500D01*
X107639900Y-84444530D01*
X107787859Y-84383243D01*
X107944926Y-84352001D01*
X108105076Y-84352001D01*
X108262143Y-84383243D01*
G37*
G36*
X136202143Y-84383243D02*
G01*
X136350102Y-84444530D01*
X136483256Y-84533500D01*
X136596502Y-84646746D01*
X136685472Y-84779900D01*
X136746759Y-84927859D01*
X136778001Y-85084926D01*
X136778001Y-85245076D01*
X136746759Y-85402143D01*
X136685472Y-85550102D01*
X136596502Y-85683256D01*
X136483256Y-85796502D01*
X136350102Y-85885472D01*
X136202143Y-85946759D01*
X136045076Y-85978001D01*
X135884926Y-85978001D01*
X135727859Y-85946759D01*
X135579900Y-85885472D01*
X135446746Y-85796502D01*
X135333500Y-85683256D01*
X135244530Y-85550102D01*
X135183243Y-85402143D01*
X135152001Y-85245076D01*
X135152001Y-85084926D01*
X135183243Y-84927859D01*
X135244530Y-84779900D01*
X135333500Y-84646746D01*
X135446746Y-84533500D01*
X135579900Y-84444530D01*
X135727859Y-84383243D01*
X135884926Y-84352001D01*
X136045076Y-84352001D01*
X136202143Y-84383243D01*
G37*
G36*
X136202143Y-81843243D02*
G01*
X136350102Y-81904530D01*
X136483256Y-81993500D01*
X136596502Y-82106746D01*
X136685472Y-82239900D01*
X136746759Y-82387859D01*
X136778001Y-82544926D01*
X136778001Y-82705076D01*
X136746759Y-82862143D01*
X136685472Y-83010102D01*
X136596502Y-83143256D01*
X136483256Y-83256502D01*
X136350102Y-83345472D01*
X136202143Y-83406759D01*
X136045076Y-83438001D01*
X135884926Y-83438001D01*
X135727859Y-83406759D01*
X135579900Y-83345472D01*
X135446746Y-83256502D01*
X135333500Y-83143256D01*
X135244530Y-83010102D01*
X135183243Y-82862143D01*
X135152001Y-82705076D01*
X135152001Y-82544926D01*
X135183243Y-82387859D01*
X135244530Y-82239900D01*
X135333500Y-82106746D01*
X135446746Y-81993500D01*
X135579900Y-81904530D01*
X135727859Y-81843243D01*
X135884926Y-81812001D01*
X136045076Y-81812001D01*
X136202143Y-81843243D01*
G37*
G36*
X108262143Y-81843243D02*
G01*
X108410102Y-81904530D01*
X108543256Y-81993500D01*
X108656502Y-82106746D01*
X108745472Y-82239900D01*
X108806759Y-82387859D01*
X108838001Y-82544926D01*
X108838001Y-82705076D01*
X108806759Y-82862143D01*
X108745472Y-83010102D01*
X108656502Y-83143256D01*
X108543256Y-83256502D01*
X108410102Y-83345472D01*
X108262143Y-83406759D01*
X108105076Y-83438001D01*
X107944926Y-83438001D01*
X107787859Y-83406759D01*
X107639900Y-83345472D01*
X107506746Y-83256502D01*
X107393500Y-83143256D01*
X107304530Y-83010102D01*
X107243243Y-82862143D01*
X107212001Y-82705076D01*
X107212001Y-82544926D01*
X107243243Y-82387859D01*
X107304530Y-82239900D01*
X107393500Y-82106746D01*
X107506746Y-81993500D01*
X107639900Y-81904530D01*
X107787859Y-81843243D01*
X107944926Y-81812001D01*
X108105076Y-81812001D01*
X108262143Y-81843243D01*
G37*
G36*
X122284903Y-78807075D02*
G01*
X122512571Y-78901378D01*
X122717466Y-79038285D01*
X122891715Y-79212534D01*
X123028622Y-79417429D01*
X123122925Y-79645097D01*
X123171000Y-79886787D01*
X123171000Y-80133213D01*
X123122925Y-80374903D01*
X123028622Y-80602571D01*
X122891715Y-80807466D01*
X122717466Y-80981715D01*
X122512571Y-81118622D01*
X122512570Y-81118623D01*
X122512569Y-81118623D01*
X122284903Y-81212925D01*
X122043214Y-81261000D01*
X121796786Y-81261000D01*
X121555097Y-81212925D01*
X121327431Y-81118623D01*
X121327430Y-81118623D01*
X121327429Y-81118622D01*
X121122534Y-80981715D01*
X120948285Y-80807466D01*
X120811378Y-80602571D01*
X120717075Y-80374903D01*
X120669000Y-80133213D01*
X120669000Y-79886787D01*
X120717075Y-79645097D01*
X120811378Y-79417429D01*
X120948285Y-79212534D01*
X121122534Y-79038285D01*
X121327429Y-78901378D01*
X121555097Y-78807075D01*
X121796786Y-78759000D01*
X122043214Y-78759000D01*
X122284903Y-78807075D01*
G37*
G36*
X144461000Y-80961000D02*
G01*
X142559000Y-80961000D01*
X142559000Y-79059000D01*
X144461000Y-79059000D01*
X144461000Y-80961000D01*
G37*
G36*
X108262143Y-79303243D02*
G01*
X108410102Y-79364530D01*
X108543256Y-79453500D01*
X108656502Y-79566746D01*
X108745472Y-79699900D01*
X108806759Y-79847859D01*
X108838001Y-80004926D01*
X108838001Y-80165076D01*
X108806759Y-80322143D01*
X108745472Y-80470102D01*
X108656502Y-80603256D01*
X108543256Y-80716502D01*
X108410102Y-80805472D01*
X108262143Y-80866759D01*
X108105076Y-80898001D01*
X107944926Y-80898001D01*
X107787859Y-80866759D01*
X107639900Y-80805472D01*
X107506746Y-80716502D01*
X107393500Y-80603256D01*
X107304530Y-80470102D01*
X107243243Y-80322143D01*
X107212001Y-80165076D01*
X107212001Y-80004926D01*
X107243243Y-79847859D01*
X107304530Y-79699900D01*
X107393500Y-79566746D01*
X107506746Y-79453500D01*
X107639900Y-79364530D01*
X107787859Y-79303243D01*
X107944926Y-79272001D01*
X108105076Y-79272001D01*
X108262143Y-79303243D01*
G37*
G36*
X136202143Y-79303243D02*
G01*
X136350102Y-79364530D01*
X136483256Y-79453500D01*
X136596502Y-79566746D01*
X136685472Y-79699900D01*
X136746759Y-79847859D01*
X136778001Y-80004926D01*
X136778001Y-80165076D01*
X136746759Y-80322143D01*
X136685472Y-80470102D01*
X136596502Y-80603256D01*
X136483256Y-80716502D01*
X136350102Y-80805472D01*
X136202143Y-80866759D01*
X136045076Y-80898001D01*
X135884926Y-80898001D01*
X135727859Y-80866759D01*
X135579900Y-80805472D01*
X135446746Y-80716502D01*
X135333500Y-80603256D01*
X135244530Y-80470102D01*
X135183243Y-80322143D01*
X135152001Y-80165076D01*
X135152001Y-80004926D01*
X135183243Y-79847859D01*
X135244530Y-79699900D01*
X135333500Y-79566746D01*
X135446746Y-79453500D01*
X135579900Y-79364530D01*
X135727859Y-79303243D01*
X135884926Y-79272001D01*
X136045076Y-79272001D01*
X136202143Y-79303243D01*
G37*
G36*
X143787395Y-76555546D02*
G01*
X143960466Y-76627234D01*
X143960467Y-76627235D01*
X144116227Y-76731310D01*
X144248690Y-76863773D01*
X144248691Y-76863775D01*
X144352766Y-77019534D01*
X144424454Y-77192605D01*
X144461000Y-77376333D01*
X144461000Y-77563667D01*
X144424454Y-77747395D01*
X144352766Y-77920466D01*
X144352765Y-77920467D01*
X144248690Y-78076227D01*
X144116227Y-78208690D01*
X144037818Y-78261081D01*
X143960466Y-78312766D01*
X143787395Y-78384454D01*
X143603667Y-78421000D01*
X143416333Y-78421000D01*
X143232605Y-78384454D01*
X143059534Y-78312766D01*
X142982182Y-78261081D01*
X142903773Y-78208690D01*
X142771310Y-78076227D01*
X142667235Y-77920467D01*
X142667234Y-77920466D01*
X142595546Y-77747395D01*
X142559000Y-77563667D01*
X142559000Y-77376333D01*
X142595546Y-77192605D01*
X142667234Y-77019534D01*
X142771309Y-76863775D01*
X142771310Y-76863773D01*
X142903773Y-76731310D01*
X143059533Y-76627235D01*
X143059534Y-76627234D01*
X143232605Y-76555546D01*
X143416333Y-76519000D01*
X143603667Y-76519000D01*
X143787395Y-76555546D01*
G37*
G36*
X108262143Y-76763243D02*
G01*
X108410102Y-76824530D01*
X108543256Y-76913500D01*
X108656502Y-77026746D01*
X108745472Y-77159900D01*
X108806759Y-77307859D01*
X108838001Y-77464926D01*
X108838001Y-77625076D01*
X108806759Y-77782143D01*
X108745472Y-77930102D01*
X108656502Y-78063256D01*
X108543256Y-78176502D01*
X108410102Y-78265472D01*
X108262143Y-78326759D01*
X108105076Y-78358001D01*
X107944926Y-78358001D01*
X107787859Y-78326759D01*
X107639900Y-78265472D01*
X107506746Y-78176502D01*
X107393500Y-78063256D01*
X107304530Y-77930102D01*
X107243243Y-77782143D01*
X107212001Y-77625076D01*
X107212001Y-77464926D01*
X107243243Y-77307859D01*
X107304530Y-77159900D01*
X107393500Y-77026746D01*
X107506746Y-76913500D01*
X107639900Y-76824530D01*
X107787859Y-76763243D01*
X107944926Y-76732001D01*
X108105076Y-76732001D01*
X108262143Y-76763243D01*
G37*
G36*
X136202143Y-76763243D02*
G01*
X136350102Y-76824530D01*
X136483256Y-76913500D01*
X136596502Y-77026746D01*
X136685472Y-77159900D01*
X136746759Y-77307859D01*
X136778001Y-77464926D01*
X136778001Y-77625076D01*
X136746759Y-77782143D01*
X136685472Y-77930102D01*
X136596502Y-78063256D01*
X136483256Y-78176502D01*
X136350102Y-78265472D01*
X136202143Y-78326759D01*
X136045076Y-78358001D01*
X135884926Y-78358001D01*
X135727859Y-78326759D01*
X135579900Y-78265472D01*
X135446746Y-78176502D01*
X135333500Y-78063256D01*
X135244530Y-77930102D01*
X135183243Y-77782143D01*
X135152001Y-77625076D01*
X135152001Y-77464926D01*
X135183243Y-77307859D01*
X135244530Y-77159900D01*
X135333500Y-77026746D01*
X135446746Y-76913500D01*
X135579900Y-76824530D01*
X135727859Y-76763243D01*
X135884926Y-76732001D01*
X136045076Y-76732001D01*
X136202143Y-76763243D01*
G37*
G36*
X136202143Y-74223243D02*
G01*
X136350102Y-74284530D01*
X136483256Y-74373500D01*
X136596502Y-74486746D01*
X136685472Y-74619900D01*
X136746759Y-74767859D01*
X136778001Y-74924926D01*
X136778001Y-75085076D01*
X136746759Y-75242143D01*
X136685472Y-75390102D01*
X136596502Y-75523256D01*
X136483256Y-75636502D01*
X136350102Y-75725472D01*
X136202143Y-75786759D01*
X136045076Y-75818001D01*
X135884926Y-75818001D01*
X135727859Y-75786759D01*
X135579900Y-75725472D01*
X135446746Y-75636502D01*
X135333500Y-75523256D01*
X135244530Y-75390102D01*
X135183243Y-75242143D01*
X135152001Y-75085076D01*
X135152001Y-74924926D01*
X135183243Y-74767859D01*
X135244530Y-74619900D01*
X135333500Y-74486746D01*
X135446746Y-74373500D01*
X135579900Y-74284530D01*
X135727859Y-74223243D01*
X135884926Y-74192001D01*
X136045076Y-74192001D01*
X136202143Y-74223243D01*
G37*
G36*
X108262143Y-74223243D02*
G01*
X108410102Y-74284530D01*
X108543256Y-74373500D01*
X108656502Y-74486746D01*
X108745472Y-74619900D01*
X108806759Y-74767859D01*
X108838001Y-74924926D01*
X108838001Y-75085076D01*
X108806759Y-75242143D01*
X108745472Y-75390102D01*
X108656502Y-75523256D01*
X108543256Y-75636502D01*
X108410102Y-75725472D01*
X108262143Y-75786759D01*
X108105076Y-75818001D01*
X107944926Y-75818001D01*
X107787859Y-75786759D01*
X107639900Y-75725472D01*
X107506746Y-75636502D01*
X107393500Y-75523256D01*
X107304530Y-75390102D01*
X107243243Y-75242143D01*
X107212001Y-75085076D01*
X107212001Y-74924926D01*
X107243243Y-74767859D01*
X107304530Y-74619900D01*
X107393500Y-74486746D01*
X107506746Y-74373500D01*
X107639900Y-74284530D01*
X107787859Y-74223243D01*
X107944926Y-74192001D01*
X108105076Y-74192001D01*
X108262143Y-74223243D01*
G37*
G36*
X122284903Y-71187075D02*
G01*
X122512571Y-71281378D01*
X122717466Y-71418285D01*
X122891715Y-71592534D01*
X123028622Y-71797429D01*
X123122925Y-72025097D01*
X123171000Y-72266787D01*
X123171000Y-72513213D01*
X123122925Y-72754903D01*
X123028622Y-72982571D01*
X122891715Y-73187466D01*
X122717466Y-73361715D01*
X122512571Y-73498622D01*
X122512570Y-73498623D01*
X122512569Y-73498623D01*
X122284903Y-73592925D01*
X122043214Y-73641000D01*
X121796786Y-73641000D01*
X121555097Y-73592925D01*
X121327431Y-73498623D01*
X121327430Y-73498623D01*
X121327429Y-73498622D01*
X121122534Y-73361715D01*
X120948285Y-73187466D01*
X120811378Y-72982571D01*
X120717075Y-72754903D01*
X120669000Y-72513213D01*
X120669000Y-72266787D01*
X120717075Y-72025097D01*
X120811378Y-71797429D01*
X120948285Y-71592534D01*
X121122534Y-71418285D01*
X121327429Y-71281378D01*
X121555097Y-71187075D01*
X121796786Y-71139000D01*
X122043214Y-71139000D01*
X122284903Y-71187075D01*
G37*
G36*
X136202143Y-71683243D02*
G01*
X136350102Y-71744530D01*
X136483256Y-71833500D01*
X136596502Y-71946746D01*
X136685472Y-72079900D01*
X136746759Y-72227859D01*
X136778001Y-72384926D01*
X136778001Y-72545076D01*
X136746759Y-72702143D01*
X136685472Y-72850102D01*
X136596502Y-72983256D01*
X136483256Y-73096502D01*
X136350102Y-73185472D01*
X136202143Y-73246759D01*
X136045076Y-73278001D01*
X135884926Y-73278001D01*
X135727859Y-73246759D01*
X135579900Y-73185472D01*
X135446746Y-73096502D01*
X135333500Y-72983256D01*
X135244530Y-72850102D01*
X135183243Y-72702143D01*
X135152001Y-72545076D01*
X135152001Y-72384926D01*
X135183243Y-72227859D01*
X135244530Y-72079900D01*
X135333500Y-71946746D01*
X135446746Y-71833500D01*
X135579900Y-71744530D01*
X135727859Y-71683243D01*
X135884926Y-71652001D01*
X136045076Y-71652001D01*
X136202143Y-71683243D01*
G37*
G36*
X108262143Y-71683243D02*
G01*
X108410102Y-71744530D01*
X108543256Y-71833500D01*
X108656502Y-71946746D01*
X108745472Y-72079900D01*
X108806759Y-72227859D01*
X108838001Y-72384926D01*
X108838001Y-72545076D01*
X108806759Y-72702143D01*
X108745472Y-72850102D01*
X108656502Y-72983256D01*
X108543256Y-73096502D01*
X108410102Y-73185472D01*
X108262143Y-73246759D01*
X108105076Y-73278001D01*
X107944926Y-73278001D01*
X107787859Y-73246759D01*
X107639900Y-73185472D01*
X107506746Y-73096502D01*
X107393500Y-72983256D01*
X107304530Y-72850102D01*
X107243243Y-72702143D01*
X107212001Y-72545076D01*
X107212001Y-72384926D01*
X107243243Y-72227859D01*
X107304530Y-72079900D01*
X107393500Y-71946746D01*
X107506746Y-71833500D01*
X107639900Y-71744530D01*
X107787859Y-71683243D01*
X107944926Y-71652001D01*
X108105076Y-71652001D01*
X108262143Y-71683243D01*
G37*
G36*
X147626564Y-68839389D02*
G01*
X147817833Y-68918615D01*
X147817835Y-68918616D01*
X147989973Y-69033635D01*
X148136365Y-69180027D01*
X148212187Y-69293502D01*
X148251385Y-69352167D01*
X148330611Y-69543436D01*
X148371000Y-69746484D01*
X148371000Y-69953516D01*
X148330611Y-70156564D01*
X148251385Y-70347833D01*
X148251384Y-70347835D01*
X148136365Y-70519973D01*
X147989973Y-70666365D01*
X147817835Y-70781384D01*
X147817834Y-70781385D01*
X147817833Y-70781385D01*
X147626564Y-70860611D01*
X147423516Y-70901000D01*
X147216484Y-70901000D01*
X147013436Y-70860611D01*
X146822167Y-70781385D01*
X146822166Y-70781385D01*
X146822165Y-70781384D01*
X146650027Y-70666365D01*
X146503635Y-70519973D01*
X146388616Y-70347835D01*
X146388615Y-70347833D01*
X146309389Y-70156564D01*
X146269000Y-69953516D01*
X146269000Y-69746484D01*
X146309389Y-69543436D01*
X146388615Y-69352167D01*
X146427814Y-69293502D01*
X146503635Y-69180027D01*
X146650027Y-69033635D01*
X146822165Y-68918616D01*
X146822167Y-68918615D01*
X147013436Y-68839389D01*
X147216484Y-68799000D01*
X147423516Y-68799000D01*
X147626564Y-68839389D01*
G37*
G36*
X141126564Y-68839389D02*
G01*
X141317833Y-68918615D01*
X141317835Y-68918616D01*
X141489973Y-69033635D01*
X141636365Y-69180027D01*
X141712187Y-69293502D01*
X141751385Y-69352167D01*
X141830611Y-69543436D01*
X141871000Y-69746484D01*
X141871000Y-69953516D01*
X141830611Y-70156564D01*
X141751385Y-70347833D01*
X141751384Y-70347835D01*
X141636365Y-70519973D01*
X141489973Y-70666365D01*
X141317835Y-70781384D01*
X141317834Y-70781385D01*
X141317833Y-70781385D01*
X141126564Y-70860611D01*
X140923516Y-70901000D01*
X140716484Y-70901000D01*
X140513436Y-70860611D01*
X140322167Y-70781385D01*
X140322166Y-70781385D01*
X140322165Y-70781384D01*
X140150027Y-70666365D01*
X140003635Y-70519973D01*
X139888616Y-70347835D01*
X139888615Y-70347833D01*
X139809389Y-70156564D01*
X139769000Y-69953516D01*
X139769000Y-69746484D01*
X139809389Y-69543436D01*
X139888615Y-69352167D01*
X139927814Y-69293502D01*
X140003635Y-69180027D01*
X140150027Y-69033635D01*
X140322165Y-68918616D01*
X140322167Y-68918615D01*
X140513436Y-68839389D01*
X140716484Y-68799000D01*
X140923516Y-68799000D01*
X141126564Y-68839389D01*
G37*
G36*
X108262143Y-69143243D02*
G01*
X108410102Y-69204530D01*
X108543256Y-69293500D01*
X108656502Y-69406746D01*
X108745472Y-69539900D01*
X108806759Y-69687859D01*
X108838001Y-69844926D01*
X108838001Y-70005076D01*
X108806759Y-70162143D01*
X108745472Y-70310102D01*
X108656502Y-70443256D01*
X108543256Y-70556502D01*
X108410102Y-70645472D01*
X108262143Y-70706759D01*
X108105076Y-70738001D01*
X107944926Y-70738001D01*
X107787859Y-70706759D01*
X107639900Y-70645472D01*
X107506746Y-70556502D01*
X107393500Y-70443256D01*
X107304530Y-70310102D01*
X107243243Y-70162143D01*
X107212001Y-70005076D01*
X107212001Y-69844926D01*
X107243243Y-69687859D01*
X107304530Y-69539900D01*
X107393500Y-69406746D01*
X107506746Y-69293500D01*
X107639900Y-69204530D01*
X107787859Y-69143243D01*
X107944926Y-69112001D01*
X108105076Y-69112001D01*
X108262143Y-69143243D01*
G37*
G36*
X136202143Y-69143243D02*
G01*
X136350102Y-69204530D01*
X136483256Y-69293500D01*
X136596502Y-69406746D01*
X136685472Y-69539900D01*
X136746759Y-69687859D01*
X136778001Y-69844926D01*
X136778001Y-70005076D01*
X136746759Y-70162143D01*
X136685472Y-70310102D01*
X136596502Y-70443256D01*
X136483256Y-70556502D01*
X136350102Y-70645472D01*
X136202143Y-70706759D01*
X136045076Y-70738001D01*
X135884926Y-70738001D01*
X135727859Y-70706759D01*
X135579900Y-70645472D01*
X135446746Y-70556502D01*
X135333500Y-70443256D01*
X135244530Y-70310102D01*
X135183243Y-70162143D01*
X135152001Y-70005076D01*
X135152001Y-69844926D01*
X135183243Y-69687859D01*
X135244530Y-69539900D01*
X135333500Y-69406746D01*
X135446746Y-69293500D01*
X135579900Y-69204530D01*
X135727859Y-69143243D01*
X135884926Y-69112001D01*
X136045076Y-69112001D01*
X136202143Y-69143243D01*
G37*
G36*
X108262143Y-66603243D02*
G01*
X108410102Y-66664530D01*
X108543256Y-66753500D01*
X108656502Y-66866746D01*
X108745472Y-66999900D01*
X108806759Y-67147859D01*
X108838001Y-67304926D01*
X108838001Y-67465076D01*
X108806759Y-67622143D01*
X108745472Y-67770102D01*
X108656502Y-67903256D01*
X108543256Y-68016502D01*
X108410102Y-68105472D01*
X108262143Y-68166759D01*
X108105076Y-68198001D01*
X107944926Y-68198001D01*
X107787859Y-68166759D01*
X107639900Y-68105472D01*
X107506746Y-68016502D01*
X107393500Y-67903256D01*
X107304530Y-67770102D01*
X107243243Y-67622143D01*
X107212001Y-67465076D01*
X107212001Y-67304926D01*
X107243243Y-67147859D01*
X107304530Y-66999900D01*
X107393500Y-66866746D01*
X107506746Y-66753500D01*
X107639900Y-66664530D01*
X107787859Y-66603243D01*
X107944926Y-66572001D01*
X108105076Y-66572001D01*
X108262143Y-66603243D01*
G37*
G36*
X136202143Y-66603243D02*
G01*
X136350102Y-66664530D01*
X136483256Y-66753500D01*
X136596502Y-66866746D01*
X136685472Y-66999900D01*
X136746759Y-67147859D01*
X136778001Y-67304926D01*
X136778001Y-67465076D01*
X136746759Y-67622143D01*
X136685472Y-67770102D01*
X136596502Y-67903256D01*
X136483256Y-68016502D01*
X136350102Y-68105472D01*
X136202143Y-68166759D01*
X136045076Y-68198001D01*
X135884926Y-68198001D01*
X135727859Y-68166759D01*
X135579900Y-68105472D01*
X135446746Y-68016502D01*
X135333500Y-67903256D01*
X135244530Y-67770102D01*
X135183243Y-67622143D01*
X135152001Y-67465076D01*
X135152001Y-67304926D01*
X135183243Y-67147859D01*
X135244530Y-66999900D01*
X135333500Y-66866746D01*
X135446746Y-66753500D01*
X135579900Y-66664530D01*
X135727859Y-66603243D01*
X135884926Y-66572001D01*
X136045076Y-66572001D01*
X136202143Y-66603243D01*
G37*
G36*
X147626564Y-64339389D02*
G01*
X147817833Y-64418615D01*
X147817835Y-64418616D01*
X147879621Y-64459900D01*
X147989973Y-64533635D01*
X148136365Y-64680027D01*
X148251385Y-64852167D01*
X148330611Y-65043436D01*
X148371000Y-65246484D01*
X148371000Y-65453516D01*
X148330611Y-65656564D01*
X148251385Y-65847833D01*
X148251384Y-65847835D01*
X148136365Y-66019973D01*
X147989973Y-66166365D01*
X147817835Y-66281384D01*
X147817834Y-66281385D01*
X147817833Y-66281385D01*
X147626564Y-66360611D01*
X147423516Y-66401000D01*
X147216484Y-66401000D01*
X147013436Y-66360611D01*
X146822167Y-66281385D01*
X146822166Y-66281385D01*
X146822165Y-66281384D01*
X146650027Y-66166365D01*
X146503635Y-66019973D01*
X146388616Y-65847835D01*
X146388615Y-65847833D01*
X146309389Y-65656564D01*
X146269000Y-65453516D01*
X146269000Y-65246484D01*
X146309389Y-65043436D01*
X146388615Y-64852167D01*
X146503635Y-64680027D01*
X146650027Y-64533635D01*
X146760379Y-64459900D01*
X146822165Y-64418616D01*
X146822167Y-64418615D01*
X147013436Y-64339389D01*
X147216484Y-64299000D01*
X147423516Y-64299000D01*
X147626564Y-64339389D01*
G37*
G36*
X141126564Y-64339389D02*
G01*
X141317833Y-64418615D01*
X141317835Y-64418616D01*
X141379621Y-64459900D01*
X141489973Y-64533635D01*
X141636365Y-64680027D01*
X141751385Y-64852167D01*
X141830611Y-65043436D01*
X141871000Y-65246484D01*
X141871000Y-65453516D01*
X141830611Y-65656564D01*
X141751385Y-65847833D01*
X141751384Y-65847835D01*
X141636365Y-66019973D01*
X141489973Y-66166365D01*
X141317835Y-66281384D01*
X141317834Y-66281385D01*
X141317833Y-66281385D01*
X141126564Y-66360611D01*
X140923516Y-66401000D01*
X140716484Y-66401000D01*
X140513436Y-66360611D01*
X140322167Y-66281385D01*
X140322166Y-66281385D01*
X140322165Y-66281384D01*
X140150027Y-66166365D01*
X140003635Y-66019973D01*
X139888616Y-65847835D01*
X139888615Y-65847833D01*
X139809389Y-65656564D01*
X139769000Y-65453516D01*
X139769000Y-65246484D01*
X139809389Y-65043436D01*
X139888615Y-64852167D01*
X140003635Y-64680027D01*
X140150027Y-64533635D01*
X140260379Y-64459900D01*
X140322165Y-64418616D01*
X140322167Y-64418615D01*
X140513436Y-64339389D01*
X140716484Y-64299000D01*
X140923516Y-64299000D01*
X141126564Y-64339389D01*
G37*
G36*
X136202143Y-64063243D02*
G01*
X136350102Y-64124530D01*
X136483256Y-64213500D01*
X136596502Y-64326746D01*
X136685472Y-64459900D01*
X136746759Y-64607859D01*
X136778001Y-64764926D01*
X136778001Y-64925076D01*
X136746759Y-65082143D01*
X136685472Y-65230102D01*
X136596502Y-65363256D01*
X136483256Y-65476502D01*
X136350102Y-65565472D01*
X136202143Y-65626759D01*
X136045076Y-65658001D01*
X135884926Y-65658001D01*
X135727859Y-65626759D01*
X135579900Y-65565472D01*
X135446746Y-65476502D01*
X135333500Y-65363256D01*
X135244530Y-65230102D01*
X135183243Y-65082143D01*
X135152001Y-64925076D01*
X135152001Y-64764926D01*
X135183243Y-64607859D01*
X135244530Y-64459900D01*
X135333500Y-64326746D01*
X135446746Y-64213500D01*
X135579900Y-64124530D01*
X135727859Y-64063243D01*
X135884926Y-64032001D01*
X136045076Y-64032001D01*
X136202143Y-64063243D01*
G37*
G36*
X108262143Y-64063243D02*
G01*
X108410102Y-64124530D01*
X108543256Y-64213500D01*
X108656502Y-64326746D01*
X108745472Y-64459900D01*
X108806759Y-64607859D01*
X108838001Y-64764926D01*
X108838001Y-64925076D01*
X108806759Y-65082143D01*
X108745472Y-65230102D01*
X108656502Y-65363256D01*
X108543256Y-65476502D01*
X108410102Y-65565472D01*
X108262143Y-65626759D01*
X108105076Y-65658001D01*
X107944926Y-65658001D01*
X107787859Y-65626759D01*
X107639900Y-65565472D01*
X107506746Y-65476502D01*
X107393500Y-65363256D01*
X107304530Y-65230102D01*
X107243243Y-65082143D01*
X107212001Y-64925076D01*
X107212001Y-64764926D01*
X107243243Y-64607859D01*
X107304530Y-64459900D01*
X107393500Y-64326746D01*
X107506746Y-64213500D01*
X107639900Y-64124530D01*
X107787859Y-64063243D01*
X107944926Y-64032001D01*
X108105076Y-64032001D01*
X108262143Y-64063243D01*
G37*
M02*
