G04 #@! TF.GenerationSoftware,KiCad,Pcbnew,5.1.5-52549c5~86~ubuntu18.04.1*
G04 #@! TF.CreationDate,2020-04-21T17:43:41+02:00*
G04 #@! TF.ProjectId,NODEMCU_PLACA_EMISOR_V01B,4e4f4445-4d43-4555-9f50-4c4143415f45,V1.0*
G04 #@! TF.SameCoordinates,Original*
G04 #@! TF.FileFunction,Legend,Top*
G04 #@! TF.FilePolarity,Positive*
%FSLAX46Y46*%
G04 Gerber Fmt 4.6, Leading zero omitted, Abs format (unit mm)*
G04 Created by KiCad (PCBNEW 5.1.5-52549c5~86~ubuntu18.04.1) date 2020-04-21 17:43:41*
%MOMM*%
%LPD*%
G04 APERTURE LIST*
%ADD10C,0.150000*%
%ADD11C,0.120000*%
G04 APERTURE END LIST*
D10*
X135975001Y-106755001D02*
X125805001Y-106755001D01*
X127495001Y-65625001D02*
X116495001Y-65625001D01*
X127495001Y-58495001D02*
X127495001Y-65625001D01*
X116495001Y-65625001D02*
X116495001Y-58495001D01*
X118195001Y-107755001D02*
X118195001Y-102025001D01*
X118195001Y-102025001D02*
X125795001Y-102025001D01*
X125795001Y-102025001D02*
X125795001Y-107755001D01*
X125795001Y-107755001D02*
X118195001Y-107755001D01*
X108025001Y-58495001D02*
G75*
G03X106755001Y-59765001I0J-1270000D01*
G01*
X137235001Y-59765001D02*
G75*
G03X135965001Y-58495001I-1270000J0D01*
G01*
X135965001Y-106755001D02*
G75*
G03X137235001Y-105485001I0J1270000D01*
G01*
X106755001Y-105485001D02*
G75*
G03X108025001Y-106755001I1270000J0D01*
G01*
X137235001Y-59765001D02*
X137235001Y-105485001D01*
X106755001Y-59765001D02*
X106755001Y-105485001D01*
X118195001Y-106755001D02*
X108025001Y-106755001D01*
X136491052Y-104215001D02*
G75*
G03X136491052Y-104215001I-1796051J0D01*
G01*
X111091052Y-104215001D02*
G75*
G03X111091052Y-104215001I-1796051J0D01*
G01*
X111091052Y-61035001D02*
G75*
G03X111091052Y-61035001I-1796051J0D01*
G01*
X136491052Y-61035001D02*
G75*
G03X136491052Y-61035001I-1796051J0D01*
G01*
X135965001Y-58495001D02*
X108025001Y-58495001D01*
D11*
X143510462Y-75750000D02*
G75*
G03X141965170Y-81300000I-462J-2990000D01*
G01*
X143509538Y-75750000D02*
G75*
G02X145054830Y-81300000I462J-2990000D01*
G01*
X146010000Y-78740000D02*
G75*
G03X146010000Y-78740000I-2500000J0D01*
G01*
X141965000Y-81300000D02*
X145055000Y-81300000D01*
X142180000Y-101660000D02*
X144840000Y-101660000D01*
X142180000Y-99060000D02*
X142180000Y-101660000D01*
X144840000Y-99060000D02*
X144840000Y-101660000D01*
X142180000Y-99060000D02*
X144840000Y-99060000D01*
X142180000Y-97790000D02*
X142180000Y-96460000D01*
X142180000Y-96460000D02*
X143510000Y-96460000D01*
X145430000Y-85090000D02*
G75*
G03X145430000Y-85090000I-1920000J0D01*
G01*
X143510000Y-87010000D02*
X143510000Y-91210000D01*
X121920000Y-74310000D02*
X121920000Y-78510000D01*
X123840000Y-72390000D02*
G75*
G03X123840000Y-72390000I-1920000J0D01*
G01*
X146320000Y-64350000D02*
X141820000Y-64350000D01*
X147570000Y-68350000D02*
X147570000Y-66850000D01*
X141820000Y-70850000D02*
X146320000Y-70850000D01*
X140570000Y-66850000D02*
X140570000Y-68350000D01*
D10*
X121233096Y-82077381D02*
X121233096Y-82886905D01*
X121280715Y-82982143D01*
X121328334Y-83029762D01*
X121423572Y-83077381D01*
X121614048Y-83077381D01*
X121709286Y-83029762D01*
X121756905Y-82982143D01*
X121804524Y-82886905D01*
X121804524Y-82077381D01*
X122804524Y-83077381D02*
X122233096Y-83077381D01*
X122518810Y-83077381D02*
X122518810Y-82077381D01*
X122423572Y-82220239D01*
X122328334Y-82315477D01*
X122233096Y-82363096D01*
X120733096Y-104937381D02*
X120733096Y-105746905D01*
X120780715Y-105842143D01*
X120828334Y-105889762D01*
X120923572Y-105937381D01*
X121114048Y-105937381D01*
X121209286Y-105889762D01*
X121256905Y-105842143D01*
X121304524Y-105746905D01*
X121304524Y-104937381D01*
X121733096Y-105889762D02*
X121875953Y-105937381D01*
X122114048Y-105937381D01*
X122209286Y-105889762D01*
X122256905Y-105842143D01*
X122304524Y-105746905D01*
X122304524Y-105651667D01*
X122256905Y-105556429D01*
X122209286Y-105508810D01*
X122114048Y-105461191D01*
X121923572Y-105413572D01*
X121828334Y-105365953D01*
X121780715Y-105318334D01*
X121733096Y-105223096D01*
X121733096Y-105127858D01*
X121780715Y-105032620D01*
X121828334Y-104985001D01*
X121923572Y-104937381D01*
X122161667Y-104937381D01*
X122304524Y-104985001D01*
X123066429Y-105413572D02*
X123209286Y-105461191D01*
X123256905Y-105508810D01*
X123304524Y-105604048D01*
X123304524Y-105746905D01*
X123256905Y-105842143D01*
X123209286Y-105889762D01*
X123114048Y-105937381D01*
X122733096Y-105937381D01*
X122733096Y-104937381D01*
X123066429Y-104937381D01*
X123161667Y-104985001D01*
X123209286Y-105032620D01*
X123256905Y-105127858D01*
X123256905Y-105223096D01*
X123209286Y-105318334D01*
X123161667Y-105365953D01*
X123066429Y-105413572D01*
X122733096Y-105413572D01*
X118542620Y-62757381D02*
X118209286Y-62281191D01*
X117971191Y-62757381D02*
X117971191Y-61757381D01*
X118352143Y-61757381D01*
X118447381Y-61805001D01*
X118495001Y-61852620D01*
X118542620Y-61947858D01*
X118542620Y-62090715D01*
X118495001Y-62185953D01*
X118447381Y-62233572D01*
X118352143Y-62281191D01*
X117971191Y-62281191D01*
X119304524Y-62233572D02*
X118971191Y-62233572D01*
X118971191Y-62757381D02*
X118971191Y-61757381D01*
X119447381Y-61757381D01*
X120542620Y-62471667D02*
X121018810Y-62471667D01*
X120447381Y-62757381D02*
X120780715Y-61757381D01*
X121114048Y-62757381D01*
X121447381Y-62090715D02*
X121447381Y-62757381D01*
X121447381Y-62185953D02*
X121495001Y-62138334D01*
X121590239Y-62090715D01*
X121733096Y-62090715D01*
X121828334Y-62138334D01*
X121875953Y-62233572D01*
X121875953Y-62757381D01*
X122209286Y-62090715D02*
X122590239Y-62090715D01*
X122352143Y-61757381D02*
X122352143Y-62614524D01*
X122399762Y-62709762D01*
X122495001Y-62757381D01*
X122590239Y-62757381D01*
X123304524Y-62709762D02*
X123209286Y-62757381D01*
X123018810Y-62757381D01*
X122923572Y-62709762D01*
X122875953Y-62614524D01*
X122875953Y-62233572D01*
X122923572Y-62138334D01*
X123018810Y-62090715D01*
X123209286Y-62090715D01*
X123304524Y-62138334D01*
X123352143Y-62233572D01*
X123352143Y-62328810D01*
X122875953Y-62424048D01*
X123780715Y-62090715D02*
X123780715Y-62757381D01*
X123780715Y-62185953D02*
X123828334Y-62138334D01*
X123923572Y-62090715D01*
X124066429Y-62090715D01*
X124161667Y-62138334D01*
X124209286Y-62233572D01*
X124209286Y-62757381D01*
X124685477Y-62090715D02*
X124685477Y-62757381D01*
X124685477Y-62185953D02*
X124733096Y-62138334D01*
X124828334Y-62090715D01*
X124971191Y-62090715D01*
X125066429Y-62138334D01*
X125114048Y-62233572D01*
X125114048Y-62757381D01*
X126018810Y-62757381D02*
X126018810Y-62233572D01*
X125971191Y-62138334D01*
X125875953Y-62090715D01*
X125685477Y-62090715D01*
X125590239Y-62138334D01*
X126018810Y-62709762D02*
X125923572Y-62757381D01*
X125685477Y-62757381D01*
X125590239Y-62709762D01*
X125542620Y-62614524D01*
X125542620Y-62519286D01*
X125590239Y-62424048D01*
X125685477Y-62376429D01*
X125923572Y-62376429D01*
X126018810Y-62328810D01*
X109469762Y-99857381D02*
X109803096Y-100857381D01*
X110136429Y-99857381D01*
X110469762Y-100857381D02*
X110469762Y-99857381D01*
X110945953Y-100857381D02*
X110945953Y-99857381D01*
X111517381Y-100857381D01*
X111517381Y-99857381D01*
X110826905Y-97365001D02*
X110731667Y-97317381D01*
X110588810Y-97317381D01*
X110445953Y-97365001D01*
X110350715Y-97460239D01*
X110303096Y-97555477D01*
X110255477Y-97745953D01*
X110255477Y-97888810D01*
X110303096Y-98079286D01*
X110350715Y-98174524D01*
X110445953Y-98269762D01*
X110588810Y-98317381D01*
X110684048Y-98317381D01*
X110826905Y-98269762D01*
X110874524Y-98222143D01*
X110874524Y-97888810D01*
X110684048Y-97888810D01*
X110017381Y-95777381D02*
X109684048Y-95301191D01*
X109445953Y-95777381D02*
X109445953Y-94777381D01*
X109826905Y-94777381D01*
X109922143Y-94825001D01*
X109969762Y-94872620D01*
X110017381Y-94967858D01*
X110017381Y-95110715D01*
X109969762Y-95205953D01*
X109922143Y-95253572D01*
X109826905Y-95301191D01*
X109445953Y-95301191D01*
X110398334Y-95729762D02*
X110541191Y-95777381D01*
X110779286Y-95777381D01*
X110874524Y-95729762D01*
X110922143Y-95682143D01*
X110969762Y-95586905D01*
X110969762Y-95491667D01*
X110922143Y-95396429D01*
X110874524Y-95348810D01*
X110779286Y-95301191D01*
X110588810Y-95253572D01*
X110493572Y-95205953D01*
X110445953Y-95158334D01*
X110398334Y-95063096D01*
X110398334Y-94967858D01*
X110445953Y-94872620D01*
X110493572Y-94825001D01*
X110588810Y-94777381D01*
X110826905Y-94777381D01*
X110969762Y-94825001D01*
X111255477Y-94777381D02*
X111826905Y-94777381D01*
X111541191Y-95777381D02*
X111541191Y-94777381D01*
X109826905Y-92713572D02*
X110160239Y-92713572D01*
X110303096Y-93237381D02*
X109826905Y-93237381D01*
X109826905Y-92237381D01*
X110303096Y-92237381D01*
X110731667Y-93237381D02*
X110731667Y-92237381D01*
X111303096Y-93237381D01*
X111303096Y-92237381D01*
X109803096Y-89697381D02*
X110422143Y-89697381D01*
X110088810Y-90078334D01*
X110231667Y-90078334D01*
X110326905Y-90125953D01*
X110374524Y-90173572D01*
X110422143Y-90268810D01*
X110422143Y-90506905D01*
X110374524Y-90602143D01*
X110326905Y-90649762D01*
X110231667Y-90697381D01*
X109945953Y-90697381D01*
X109850715Y-90649762D01*
X109803096Y-90602143D01*
X110707858Y-89697381D02*
X111041191Y-90697381D01*
X111374524Y-89697381D01*
X110826905Y-87205001D02*
X110731667Y-87157381D01*
X110588810Y-87157381D01*
X110445953Y-87205001D01*
X110350715Y-87300239D01*
X110303096Y-87395477D01*
X110255477Y-87585953D01*
X110255477Y-87728810D01*
X110303096Y-87919286D01*
X110350715Y-88014524D01*
X110445953Y-88109762D01*
X110588810Y-88157381D01*
X110684048Y-88157381D01*
X110826905Y-88109762D01*
X110874524Y-88062143D01*
X110874524Y-87728810D01*
X110684048Y-87728810D01*
X109779286Y-85569762D02*
X109922143Y-85617381D01*
X110160239Y-85617381D01*
X110255477Y-85569762D01*
X110303096Y-85522143D01*
X110350715Y-85426905D01*
X110350715Y-85331667D01*
X110303096Y-85236429D01*
X110255477Y-85188810D01*
X110160239Y-85141191D01*
X109969762Y-85093572D01*
X109874524Y-85045953D01*
X109826905Y-84998334D01*
X109779286Y-84903096D01*
X109779286Y-84807858D01*
X109826905Y-84712620D01*
X109874524Y-84665001D01*
X109969762Y-84617381D01*
X110207858Y-84617381D01*
X110350715Y-84665001D01*
X110779286Y-85617381D02*
X110779286Y-84617381D01*
X111350715Y-85617381D02*
X110922143Y-85045953D01*
X111350715Y-84617381D02*
X110779286Y-85188810D01*
X109755477Y-83029762D02*
X109898334Y-83077381D01*
X110136429Y-83077381D01*
X110231667Y-83029762D01*
X110279286Y-82982143D01*
X110326905Y-82886905D01*
X110326905Y-82791667D01*
X110279286Y-82696429D01*
X110231667Y-82648810D01*
X110136429Y-82601191D01*
X109945953Y-82553572D01*
X109850715Y-82505953D01*
X109803096Y-82458334D01*
X109755477Y-82363096D01*
X109755477Y-82267858D01*
X109803096Y-82172620D01*
X109850715Y-82125001D01*
X109945953Y-82077381D01*
X110184048Y-82077381D01*
X110326905Y-82125001D01*
X110945953Y-82077381D02*
X111136429Y-82077381D01*
X111231667Y-82125001D01*
X111326905Y-82220239D01*
X111374524Y-82410715D01*
X111374524Y-82744048D01*
X111326905Y-82934524D01*
X111231667Y-83029762D01*
X111136429Y-83077381D01*
X110945953Y-83077381D01*
X110850715Y-83029762D01*
X110755477Y-82934524D01*
X110707858Y-82744048D01*
X110707858Y-82410715D01*
X110755477Y-82220239D01*
X110850715Y-82125001D01*
X110945953Y-82077381D01*
X109779286Y-80489762D02*
X109922143Y-80537381D01*
X110160239Y-80537381D01*
X110255477Y-80489762D01*
X110303096Y-80442143D01*
X110350715Y-80346905D01*
X110350715Y-80251667D01*
X110303096Y-80156429D01*
X110255477Y-80108810D01*
X110160239Y-80061191D01*
X109969762Y-80013572D01*
X109874524Y-79965953D01*
X109826905Y-79918334D01*
X109779286Y-79823096D01*
X109779286Y-79727858D01*
X109826905Y-79632620D01*
X109874524Y-79585001D01*
X109969762Y-79537381D01*
X110207858Y-79537381D01*
X110350715Y-79585001D01*
X111350715Y-80442143D02*
X111303096Y-80489762D01*
X111160239Y-80537381D01*
X111065001Y-80537381D01*
X110922143Y-80489762D01*
X110826905Y-80394524D01*
X110779286Y-80299286D01*
X110731667Y-80108810D01*
X110731667Y-79965953D01*
X110779286Y-79775477D01*
X110826905Y-79680239D01*
X110922143Y-79585001D01*
X111065001Y-79537381D01*
X111160239Y-79537381D01*
X111303096Y-79585001D01*
X111350715Y-79632620D01*
X109803096Y-77949762D02*
X109945953Y-77997381D01*
X110184048Y-77997381D01*
X110279286Y-77949762D01*
X110326905Y-77902143D01*
X110374524Y-77806905D01*
X110374524Y-77711667D01*
X110326905Y-77616429D01*
X110279286Y-77568810D01*
X110184048Y-77521191D01*
X109993572Y-77473572D01*
X109898334Y-77425953D01*
X109850715Y-77378334D01*
X109803096Y-77283096D01*
X109803096Y-77187858D01*
X109850715Y-77092620D01*
X109898334Y-77045001D01*
X109993572Y-76997381D01*
X110231667Y-76997381D01*
X110374524Y-77045001D01*
X111326905Y-77997381D02*
X110755477Y-77997381D01*
X111041191Y-77997381D02*
X111041191Y-76997381D01*
X110945953Y-77140239D01*
X110850715Y-77235477D01*
X110755477Y-77283096D01*
X109803096Y-75409762D02*
X109945953Y-75457381D01*
X110184048Y-75457381D01*
X110279286Y-75409762D01*
X110326905Y-75362143D01*
X110374524Y-75266905D01*
X110374524Y-75171667D01*
X110326905Y-75076429D01*
X110279286Y-75028810D01*
X110184048Y-74981191D01*
X109993572Y-74933572D01*
X109898334Y-74885953D01*
X109850715Y-74838334D01*
X109803096Y-74743096D01*
X109803096Y-74647858D01*
X109850715Y-74552620D01*
X109898334Y-74505001D01*
X109993572Y-74457381D01*
X110231667Y-74457381D01*
X110374524Y-74505001D01*
X110755477Y-74552620D02*
X110803096Y-74505001D01*
X110898334Y-74457381D01*
X111136429Y-74457381D01*
X111231667Y-74505001D01*
X111279286Y-74552620D01*
X111326905Y-74647858D01*
X111326905Y-74743096D01*
X111279286Y-74885953D01*
X110707858Y-75457381D01*
X111326905Y-75457381D01*
X109803096Y-72869762D02*
X109945953Y-72917381D01*
X110184048Y-72917381D01*
X110279286Y-72869762D01*
X110326905Y-72822143D01*
X110374524Y-72726905D01*
X110374524Y-72631667D01*
X110326905Y-72536429D01*
X110279286Y-72488810D01*
X110184048Y-72441191D01*
X109993572Y-72393572D01*
X109898334Y-72345953D01*
X109850715Y-72298334D01*
X109803096Y-72203096D01*
X109803096Y-72107858D01*
X109850715Y-72012620D01*
X109898334Y-71965001D01*
X109993572Y-71917381D01*
X110231667Y-71917381D01*
X110374524Y-71965001D01*
X110707858Y-71917381D02*
X111326905Y-71917381D01*
X110993572Y-72298334D01*
X111136429Y-72298334D01*
X111231667Y-72345953D01*
X111279286Y-72393572D01*
X111326905Y-72488810D01*
X111326905Y-72726905D01*
X111279286Y-72822143D01*
X111231667Y-72869762D01*
X111136429Y-72917381D01*
X110850715Y-72917381D01*
X110755477Y-72869762D01*
X110707858Y-72822143D01*
X109707858Y-69377381D02*
X110041191Y-70377381D01*
X110374524Y-69377381D01*
X110707858Y-69377381D02*
X110707858Y-70186905D01*
X110755477Y-70282143D01*
X110803096Y-70329762D01*
X110898334Y-70377381D01*
X111088810Y-70377381D01*
X111184048Y-70329762D01*
X111231667Y-70282143D01*
X111279286Y-70186905D01*
X111279286Y-69377381D01*
X110826905Y-66885001D02*
X110731667Y-66837381D01*
X110588810Y-66837381D01*
X110445953Y-66885001D01*
X110350715Y-66980239D01*
X110303096Y-67075477D01*
X110255477Y-67265953D01*
X110255477Y-67408810D01*
X110303096Y-67599286D01*
X110350715Y-67694524D01*
X110445953Y-67789762D01*
X110588810Y-67837381D01*
X110684048Y-67837381D01*
X110826905Y-67789762D01*
X110874524Y-67742143D01*
X110874524Y-67408810D01*
X110684048Y-67408810D01*
X109850715Y-65011667D02*
X110326905Y-65011667D01*
X109755477Y-65297381D02*
X110088810Y-64297381D01*
X110422143Y-65297381D01*
X110945953Y-64297381D02*
X111041191Y-64297381D01*
X111136429Y-64345001D01*
X111184048Y-64392620D01*
X111231667Y-64487858D01*
X111279286Y-64678334D01*
X111279286Y-64916429D01*
X111231667Y-65106905D01*
X111184048Y-65202143D01*
X111136429Y-65249762D01*
X111041191Y-65297381D01*
X110945953Y-65297381D01*
X110850715Y-65249762D01*
X110803096Y-65202143D01*
X110755477Y-65106905D01*
X110707858Y-64916429D01*
X110707858Y-64678334D01*
X110755477Y-64487858D01*
X110803096Y-64392620D01*
X110850715Y-64345001D01*
X110945953Y-64297381D01*
X132663096Y-99857381D02*
X133282143Y-99857381D01*
X132948810Y-100238334D01*
X133091667Y-100238334D01*
X133186905Y-100285953D01*
X133234524Y-100333572D01*
X133282143Y-100428810D01*
X133282143Y-100666905D01*
X133234524Y-100762143D01*
X133186905Y-100809762D01*
X133091667Y-100857381D01*
X132805953Y-100857381D01*
X132710715Y-100809762D01*
X132663096Y-100762143D01*
X133567858Y-99857381D02*
X133901191Y-100857381D01*
X134234524Y-99857381D01*
X133686905Y-97365001D02*
X133591667Y-97317381D01*
X133448810Y-97317381D01*
X133305953Y-97365001D01*
X133210715Y-97460239D01*
X133163096Y-97555477D01*
X133115477Y-97745953D01*
X133115477Y-97888810D01*
X133163096Y-98079286D01*
X133210715Y-98174524D01*
X133305953Y-98269762D01*
X133448810Y-98317381D01*
X133544048Y-98317381D01*
X133686905Y-98269762D01*
X133734524Y-98222143D01*
X133734524Y-97888810D01*
X133544048Y-97888810D01*
X132663096Y-94777381D02*
X133234524Y-94777381D01*
X132948810Y-95777381D02*
X132948810Y-94777381D01*
X133472620Y-94777381D02*
X134139286Y-95777381D01*
X134139286Y-94777381D02*
X133472620Y-95777381D01*
X133258334Y-93237381D02*
X132925001Y-92761191D01*
X132686905Y-93237381D02*
X132686905Y-92237381D01*
X133067858Y-92237381D01*
X133163096Y-92285001D01*
X133210715Y-92332620D01*
X133258334Y-92427858D01*
X133258334Y-92570715D01*
X133210715Y-92665953D01*
X133163096Y-92713572D01*
X133067858Y-92761191D01*
X132686905Y-92761191D01*
X133591667Y-92237381D02*
X134258334Y-93237381D01*
X134258334Y-92237381D02*
X133591667Y-93237381D01*
X132686905Y-90697381D02*
X132686905Y-89697381D01*
X132925001Y-89697381D01*
X133067858Y-89745001D01*
X133163096Y-89840239D01*
X133210715Y-89935477D01*
X133258334Y-90125953D01*
X133258334Y-90268810D01*
X133210715Y-90459286D01*
X133163096Y-90554524D01*
X133067858Y-90649762D01*
X132925001Y-90697381D01*
X132686905Y-90697381D01*
X133829762Y-90125953D02*
X133734524Y-90078334D01*
X133686905Y-90030715D01*
X133639286Y-89935477D01*
X133639286Y-89887858D01*
X133686905Y-89792620D01*
X133734524Y-89745001D01*
X133829762Y-89697381D01*
X134020239Y-89697381D01*
X134115477Y-89745001D01*
X134163096Y-89792620D01*
X134210715Y-89887858D01*
X134210715Y-89935477D01*
X134163096Y-90030715D01*
X134115477Y-90078334D01*
X134020239Y-90125953D01*
X133829762Y-90125953D01*
X133734524Y-90173572D01*
X133686905Y-90221191D01*
X133639286Y-90316429D01*
X133639286Y-90506905D01*
X133686905Y-90602143D01*
X133734524Y-90649762D01*
X133829762Y-90697381D01*
X134020239Y-90697381D01*
X134115477Y-90649762D01*
X134163096Y-90602143D01*
X134210715Y-90506905D01*
X134210715Y-90316429D01*
X134163096Y-90221191D01*
X134115477Y-90173572D01*
X134020239Y-90125953D01*
X132686905Y-88157381D02*
X132686905Y-87157381D01*
X132925001Y-87157381D01*
X133067858Y-87205001D01*
X133163096Y-87300239D01*
X133210715Y-87395477D01*
X133258334Y-87585953D01*
X133258334Y-87728810D01*
X133210715Y-87919286D01*
X133163096Y-88014524D01*
X133067858Y-88109762D01*
X132925001Y-88157381D01*
X132686905Y-88157381D01*
X133591667Y-87157381D02*
X134258334Y-87157381D01*
X133829762Y-88157381D01*
X132686905Y-85617381D02*
X132686905Y-84617381D01*
X132925001Y-84617381D01*
X133067858Y-84665001D01*
X133163096Y-84760239D01*
X133210715Y-84855477D01*
X133258334Y-85045953D01*
X133258334Y-85188810D01*
X133210715Y-85379286D01*
X133163096Y-85474524D01*
X133067858Y-85569762D01*
X132925001Y-85617381D01*
X132686905Y-85617381D01*
X134115477Y-84617381D02*
X133925001Y-84617381D01*
X133829762Y-84665001D01*
X133782143Y-84712620D01*
X133686905Y-84855477D01*
X133639286Y-85045953D01*
X133639286Y-85426905D01*
X133686905Y-85522143D01*
X133734524Y-85569762D01*
X133829762Y-85617381D01*
X134020239Y-85617381D01*
X134115477Y-85569762D01*
X134163096Y-85522143D01*
X134210715Y-85426905D01*
X134210715Y-85188810D01*
X134163096Y-85093572D01*
X134115477Y-85045953D01*
X134020239Y-84998334D01*
X133829762Y-84998334D01*
X133734524Y-85045953D01*
X133686905Y-85093572D01*
X133639286Y-85188810D01*
X132686905Y-83077381D02*
X132686905Y-82077381D01*
X132925001Y-82077381D01*
X133067858Y-82125001D01*
X133163096Y-82220239D01*
X133210715Y-82315477D01*
X133258334Y-82505953D01*
X133258334Y-82648810D01*
X133210715Y-82839286D01*
X133163096Y-82934524D01*
X133067858Y-83029762D01*
X132925001Y-83077381D01*
X132686905Y-83077381D01*
X134163096Y-82077381D02*
X133686905Y-82077381D01*
X133639286Y-82553572D01*
X133686905Y-82505953D01*
X133782143Y-82458334D01*
X134020239Y-82458334D01*
X134115477Y-82505953D01*
X134163096Y-82553572D01*
X134210715Y-82648810D01*
X134210715Y-82886905D01*
X134163096Y-82982143D01*
X134115477Y-83029762D01*
X134020239Y-83077381D01*
X133782143Y-83077381D01*
X133686905Y-83029762D01*
X133639286Y-82982143D01*
X133686905Y-79585001D02*
X133591667Y-79537381D01*
X133448810Y-79537381D01*
X133305953Y-79585001D01*
X133210715Y-79680239D01*
X133163096Y-79775477D01*
X133115477Y-79965953D01*
X133115477Y-80108810D01*
X133163096Y-80299286D01*
X133210715Y-80394524D01*
X133305953Y-80489762D01*
X133448810Y-80537381D01*
X133544048Y-80537381D01*
X133686905Y-80489762D01*
X133734524Y-80442143D01*
X133734524Y-80108810D01*
X133544048Y-80108810D01*
X132663096Y-76997381D02*
X133282143Y-76997381D01*
X132948810Y-77378334D01*
X133091667Y-77378334D01*
X133186905Y-77425953D01*
X133234524Y-77473572D01*
X133282143Y-77568810D01*
X133282143Y-77806905D01*
X133234524Y-77902143D01*
X133186905Y-77949762D01*
X133091667Y-77997381D01*
X132805953Y-77997381D01*
X132710715Y-77949762D01*
X132663096Y-77902143D01*
X133567858Y-76997381D02*
X133901191Y-77997381D01*
X134234524Y-76997381D01*
X132686905Y-75457381D02*
X132686905Y-74457381D01*
X132925001Y-74457381D01*
X133067858Y-74505001D01*
X133163096Y-74600239D01*
X133210715Y-74695477D01*
X133258334Y-74885953D01*
X133258334Y-75028810D01*
X133210715Y-75219286D01*
X133163096Y-75314524D01*
X133067858Y-75409762D01*
X132925001Y-75457381D01*
X132686905Y-75457381D01*
X134115477Y-74790715D02*
X134115477Y-75457381D01*
X133877381Y-74409762D02*
X133639286Y-75124048D01*
X134258334Y-75124048D01*
X132686905Y-72917381D02*
X132686905Y-71917381D01*
X132925001Y-71917381D01*
X133067858Y-71965001D01*
X133163096Y-72060239D01*
X133210715Y-72155477D01*
X133258334Y-72345953D01*
X133258334Y-72488810D01*
X133210715Y-72679286D01*
X133163096Y-72774524D01*
X133067858Y-72869762D01*
X132925001Y-72917381D01*
X132686905Y-72917381D01*
X133591667Y-71917381D02*
X134210715Y-71917381D01*
X133877381Y-72298334D01*
X134020239Y-72298334D01*
X134115477Y-72345953D01*
X134163096Y-72393572D01*
X134210715Y-72488810D01*
X134210715Y-72726905D01*
X134163096Y-72822143D01*
X134115477Y-72869762D01*
X134020239Y-72917381D01*
X133734524Y-72917381D01*
X133639286Y-72869762D01*
X133591667Y-72822143D01*
X132686905Y-70377381D02*
X132686905Y-69377381D01*
X132925001Y-69377381D01*
X133067858Y-69425001D01*
X133163096Y-69520239D01*
X133210715Y-69615477D01*
X133258334Y-69805953D01*
X133258334Y-69948810D01*
X133210715Y-70139286D01*
X133163096Y-70234524D01*
X133067858Y-70329762D01*
X132925001Y-70377381D01*
X132686905Y-70377381D01*
X133639286Y-69472620D02*
X133686905Y-69425001D01*
X133782143Y-69377381D01*
X134020239Y-69377381D01*
X134115477Y-69425001D01*
X134163096Y-69472620D01*
X134210715Y-69567858D01*
X134210715Y-69663096D01*
X134163096Y-69805953D01*
X133591667Y-70377381D01*
X134210715Y-70377381D01*
X132686905Y-67837381D02*
X132686905Y-66837381D01*
X132925001Y-66837381D01*
X133067858Y-66885001D01*
X133163096Y-66980239D01*
X133210715Y-67075477D01*
X133258334Y-67265953D01*
X133258334Y-67408810D01*
X133210715Y-67599286D01*
X133163096Y-67694524D01*
X133067858Y-67789762D01*
X132925001Y-67837381D01*
X132686905Y-67837381D01*
X134210715Y-67837381D02*
X133639286Y-67837381D01*
X133925001Y-67837381D02*
X133925001Y-66837381D01*
X133829762Y-66980239D01*
X133734524Y-67075477D01*
X133639286Y-67123096D01*
X132686905Y-65297381D02*
X132686905Y-64297381D01*
X132925001Y-64297381D01*
X133067858Y-64345001D01*
X133163096Y-64440239D01*
X133210715Y-64535477D01*
X133258334Y-64725953D01*
X133258334Y-64868810D01*
X133210715Y-65059286D01*
X133163096Y-65154524D01*
X133067858Y-65249762D01*
X132925001Y-65297381D01*
X132686905Y-65297381D01*
X133877381Y-64297381D02*
X133972620Y-64297381D01*
X134067858Y-64345001D01*
X134115477Y-64392620D01*
X134163096Y-64487858D01*
X134210715Y-64678334D01*
X134210715Y-64916429D01*
X134163096Y-65106905D01*
X134115477Y-65202143D01*
X134067858Y-65249762D01*
X133972620Y-65297381D01*
X133877381Y-65297381D01*
X133782143Y-65249762D01*
X133734524Y-65202143D01*
X133686905Y-65106905D01*
X133639286Y-64916429D01*
X133639286Y-64678334D01*
X133686905Y-64487858D01*
X133734524Y-64392620D01*
X133782143Y-64345001D01*
X133877381Y-64297381D01*
X140002380Y-79478095D02*
X139002380Y-79478095D01*
X139002380Y-79240000D01*
X139050000Y-79097142D01*
X139145238Y-79001904D01*
X139240476Y-78954285D01*
X139430952Y-78906666D01*
X139573809Y-78906666D01*
X139764285Y-78954285D01*
X139859523Y-79001904D01*
X139954761Y-79097142D01*
X140002380Y-79240000D01*
X140002380Y-79478095D01*
X140002380Y-77954285D02*
X140002380Y-78525714D01*
X140002380Y-78240000D02*
X139002380Y-78240000D01*
X139145238Y-78335238D01*
X139240476Y-78430476D01*
X139288095Y-78525714D01*
X143176666Y-94912380D02*
X143176666Y-95626666D01*
X143129047Y-95769523D01*
X143033809Y-95864761D01*
X142890952Y-95912380D01*
X142795714Y-95912380D01*
X144176666Y-95912380D02*
X143605238Y-95912380D01*
X143890952Y-95912380D02*
X143890952Y-94912380D01*
X143795714Y-95055238D01*
X143700476Y-95150476D01*
X143605238Y-95198095D01*
X146882380Y-89066666D02*
X146406190Y-89400000D01*
X146882380Y-89638095D02*
X145882380Y-89638095D01*
X145882380Y-89257142D01*
X145930000Y-89161904D01*
X145977619Y-89114285D01*
X146072857Y-89066666D01*
X146215714Y-89066666D01*
X146310952Y-89114285D01*
X146358571Y-89161904D01*
X146406190Y-89257142D01*
X146406190Y-89638095D01*
X146882380Y-88114285D02*
X146882380Y-88685714D01*
X146882380Y-88400000D02*
X145882380Y-88400000D01*
X146025238Y-88495238D01*
X146120476Y-88590476D01*
X146168095Y-88685714D01*
X125292380Y-76366666D02*
X124816190Y-76700000D01*
X125292380Y-76938095D02*
X124292380Y-76938095D01*
X124292380Y-76557142D01*
X124340000Y-76461904D01*
X124387619Y-76414285D01*
X124482857Y-76366666D01*
X124625714Y-76366666D01*
X124720952Y-76414285D01*
X124768571Y-76461904D01*
X124816190Y-76557142D01*
X124816190Y-76938095D01*
X124387619Y-75985714D02*
X124340000Y-75938095D01*
X124292380Y-75842857D01*
X124292380Y-75604761D01*
X124340000Y-75509523D01*
X124387619Y-75461904D01*
X124482857Y-75414285D01*
X124578095Y-75414285D01*
X124720952Y-75461904D01*
X125292380Y-76033333D01*
X125292380Y-75414285D01*
X142736666Y-72254761D02*
X142879523Y-72302380D01*
X143117619Y-72302380D01*
X143212857Y-72254761D01*
X143260476Y-72207142D01*
X143308095Y-72111904D01*
X143308095Y-72016666D01*
X143260476Y-71921428D01*
X143212857Y-71873809D01*
X143117619Y-71826190D01*
X142927142Y-71778571D01*
X142831904Y-71730952D01*
X142784285Y-71683333D01*
X142736666Y-71588095D01*
X142736666Y-71492857D01*
X142784285Y-71397619D01*
X142831904Y-71350000D01*
X142927142Y-71302380D01*
X143165238Y-71302380D01*
X143308095Y-71350000D01*
X143641428Y-71302380D02*
X143879523Y-72302380D01*
X144070000Y-71588095D01*
X144260476Y-72302380D01*
X144498571Y-71302380D01*
X145403333Y-72302380D02*
X144831904Y-72302380D01*
X145117619Y-72302380D02*
X145117619Y-71302380D01*
X145022380Y-71445238D01*
X144927142Y-71540476D01*
X144831904Y-71588095D01*
M02*
