G04 #@! TF.GenerationSoftware,KiCad,Pcbnew,5.1.5-52549c5~86~ubuntu18.04.1*
G04 #@! TF.CreationDate,2020-04-21T17:43:41+02:00*
G04 #@! TF.ProjectId,NODEMCU_PLACA_EMISOR_V01B,4e4f4445-4d43-4555-9f50-4c4143415f45,V1.0*
G04 #@! TF.SameCoordinates,Original*
G04 #@! TF.FileFunction,Copper,L2,Bot*
G04 #@! TF.FilePolarity,Positive*
%FSLAX46Y46*%
G04 Gerber Fmt 4.6, Leading zero omitted, Abs format (unit mm)*
G04 Created by KiCad (PCBNEW 5.1.5-52549c5~86~ubuntu18.04.1) date 2020-04-21 17:43:41*
%MOMM*%
%LPD*%
G04 APERTURE LIST*
%ADD10C,1.524000*%
%ADD11R,1.800000X1.800000*%
%ADD12C,1.800000*%
%ADD13R,1.700000X1.700000*%
%ADD14O,1.700000X1.700000*%
%ADD15C,2.400000*%
%ADD16O,2.400000X2.400000*%
%ADD17C,2.000000*%
%ADD18C,0.400000*%
%ADD19C,0.500000*%
G04 APERTURE END LIST*
D10*
X108025001Y-64845001D03*
X108025001Y-67385001D03*
X108025001Y-69925001D03*
X108025001Y-72465001D03*
X108025001Y-75005001D03*
X108025001Y-77545001D03*
X108025001Y-80085001D03*
X108025001Y-82625001D03*
X108025001Y-85165001D03*
X108025001Y-87705001D03*
X108025001Y-90245001D03*
X108025001Y-92785001D03*
X108025001Y-95325001D03*
X108025001Y-97865001D03*
X108025001Y-100405001D03*
X135965001Y-100405001D03*
X135965001Y-97865001D03*
X135965001Y-95325001D03*
X135965001Y-92785001D03*
X135965001Y-90245001D03*
X135965001Y-87705001D03*
X135965001Y-85165001D03*
X135965001Y-82625001D03*
X135965001Y-80085001D03*
X135965001Y-77545001D03*
X135965001Y-75005001D03*
X135965001Y-72465001D03*
X135965001Y-69925001D03*
X135965001Y-67385001D03*
X135965001Y-64845001D03*
D11*
X143510000Y-80010000D03*
D12*
X143510000Y-77470000D03*
D13*
X143510000Y-97790000D03*
D14*
X143510000Y-100330000D03*
D15*
X143510000Y-85090000D03*
D16*
X143510000Y-92710000D03*
X121920000Y-80010000D03*
D15*
X121920000Y-72390000D03*
D17*
X147320000Y-65350000D03*
X147320000Y-69850000D03*
X140820000Y-65350000D03*
X140820000Y-69850000D03*
D18*
X143510000Y-80010000D02*
X143510000Y-85090000D01*
X135965001Y-67385001D02*
X138430000Y-69850000D01*
X138430000Y-69850000D02*
X138430000Y-72390000D01*
X138430000Y-72390000D02*
X143510000Y-77470000D01*
X135965001Y-64845001D02*
X138354999Y-64845001D01*
X138354999Y-64845001D02*
X138430000Y-64920002D01*
X138430000Y-67460000D02*
X140820000Y-69850000D01*
X138430000Y-64920002D02*
X138430000Y-67460000D01*
X147320000Y-69850000D02*
X140820000Y-69850000D01*
X135965001Y-64845001D02*
X124384999Y-64845001D01*
X121920000Y-67310000D02*
X121920000Y-72390000D01*
X124384999Y-64845001D02*
X121920000Y-67310000D01*
X142234213Y-65350000D02*
X147320000Y-65350000D01*
X140820000Y-65350000D02*
X142234213Y-65350000D01*
X140820000Y-61110000D02*
X140820000Y-65350000D01*
X109144999Y-90245001D02*
X110490000Y-88900000D01*
X115570000Y-60960000D02*
X140970000Y-60960000D01*
X140970000Y-60960000D02*
X140820000Y-61110000D01*
X110490000Y-88900000D02*
X110490000Y-66040000D01*
X108025001Y-90245001D02*
X109144999Y-90245001D01*
X110490000Y-66040000D02*
X115570000Y-60960000D01*
X108025001Y-97865001D02*
X114224999Y-97865001D01*
X121920000Y-90170000D02*
X121920000Y-80010000D01*
X114224999Y-97865001D02*
X121920000Y-90170000D01*
X135890000Y-80010000D02*
X135965001Y-80085001D01*
X121920000Y-80010000D02*
X135890000Y-80010000D01*
X135965001Y-80085001D02*
X139700000Y-83820000D01*
X139700000Y-83820000D02*
X139700000Y-91440000D01*
X140970000Y-92710000D02*
X143510000Y-92710000D01*
X139700000Y-91440000D02*
X140970000Y-92710000D01*
X143510000Y-97790000D02*
X143510000Y-92710000D01*
X143510000Y-100330000D02*
X143510000Y-102870000D01*
X143510000Y-102870000D02*
X113030000Y-102870000D01*
X113030000Y-102870000D02*
X110490000Y-100330000D01*
X110414999Y-100405001D02*
X108025001Y-100405001D01*
X110490000Y-100330000D02*
X110414999Y-100405001D01*
D19*
G36*
X139370001Y-63618018D02*
G01*
X139268834Y-63719185D01*
X139164473Y-63633537D01*
X138912575Y-63498895D01*
X138639249Y-63415982D01*
X138426224Y-63395001D01*
X138426214Y-63395001D01*
X138354999Y-63387987D01*
X138283784Y-63395001D01*
X137360398Y-63395001D01*
X137247576Y-63282179D01*
X136918040Y-63061990D01*
X136551880Y-62910321D01*
X136163166Y-62833001D01*
X135766836Y-62833001D01*
X135378122Y-62910321D01*
X135011962Y-63061990D01*
X134682426Y-63282179D01*
X134569604Y-63395001D01*
X124456213Y-63395001D01*
X124384998Y-63387987D01*
X124313783Y-63395001D01*
X124313774Y-63395001D01*
X124100749Y-63415982D01*
X123827423Y-63498895D01*
X123708565Y-63562426D01*
X123575525Y-63633537D01*
X123410057Y-63769333D01*
X123410054Y-63769336D01*
X123354734Y-63814736D01*
X123309333Y-63870057D01*
X120945057Y-66234334D01*
X120889735Y-66279736D01*
X120844335Y-66335056D01*
X120844332Y-66335059D01*
X120764806Y-66431962D01*
X120708536Y-66500527D01*
X120573894Y-66752425D01*
X120490981Y-67025751D01*
X120470000Y-67238776D01*
X120470000Y-67238785D01*
X120462986Y-67310000D01*
X120470000Y-67381215D01*
X120470001Y-70412268D01*
X120358216Y-70486960D01*
X120016960Y-70828216D01*
X119748838Y-71229490D01*
X119564152Y-71675361D01*
X119470000Y-72148696D01*
X119470000Y-72631304D01*
X119564152Y-73104639D01*
X119748838Y-73550510D01*
X120016960Y-73951784D01*
X120358216Y-74293040D01*
X120759490Y-74561162D01*
X121205361Y-74745848D01*
X121678696Y-74840000D01*
X122161304Y-74840000D01*
X122634639Y-74745848D01*
X123080510Y-74561162D01*
X123481784Y-74293040D01*
X123823040Y-73951784D01*
X124091162Y-73550510D01*
X124275848Y-73104639D01*
X124370000Y-72631304D01*
X124370000Y-72148696D01*
X124275848Y-71675361D01*
X124091162Y-71229490D01*
X123823040Y-70828216D01*
X123481784Y-70486960D01*
X123370000Y-70412269D01*
X123370000Y-67910609D01*
X124985609Y-66295001D01*
X134273504Y-66295001D01*
X134181990Y-66431962D01*
X134030321Y-66798122D01*
X133953001Y-67186836D01*
X133953001Y-67583166D01*
X134030321Y-67971880D01*
X134181990Y-68338040D01*
X134393777Y-68655001D01*
X134181990Y-68971962D01*
X134030321Y-69338122D01*
X133953001Y-69726836D01*
X133953001Y-70123166D01*
X134030321Y-70511880D01*
X134181990Y-70878040D01*
X134393777Y-71195001D01*
X134181990Y-71511962D01*
X134030321Y-71878122D01*
X133953001Y-72266836D01*
X133953001Y-72663166D01*
X134030321Y-73051880D01*
X134181990Y-73418040D01*
X134393777Y-73735001D01*
X134181990Y-74051962D01*
X134030321Y-74418122D01*
X133953001Y-74806836D01*
X133953001Y-75203166D01*
X134030321Y-75591880D01*
X134181990Y-75958040D01*
X134393777Y-76275001D01*
X134181990Y-76591962D01*
X134030321Y-76958122D01*
X133953001Y-77346836D01*
X133953001Y-77743166D01*
X134030321Y-78131880D01*
X134181990Y-78498040D01*
X134402179Y-78827576D01*
X134682426Y-79107823D01*
X135011962Y-79328012D01*
X135378122Y-79479681D01*
X135766836Y-79557001D01*
X136163166Y-79557001D01*
X136551880Y-79479681D01*
X136918040Y-79328012D01*
X137247576Y-79107823D01*
X137527823Y-78827576D01*
X137748012Y-78498040D01*
X137899681Y-78131880D01*
X137977001Y-77743166D01*
X137977001Y-77346836D01*
X137899681Y-76958122D01*
X137748012Y-76591962D01*
X137536225Y-76275001D01*
X137748012Y-75958040D01*
X137899681Y-75591880D01*
X137977001Y-75203166D01*
X137977001Y-74806836D01*
X137899681Y-74418122D01*
X137748012Y-74051962D01*
X137536225Y-73735001D01*
X137611594Y-73622203D01*
X141360000Y-77370610D01*
X141360000Y-77681757D01*
X141442623Y-78097132D01*
X141570609Y-78406115D01*
X141565634Y-78412177D01*
X141449563Y-78629331D01*
X141378087Y-78864957D01*
X141353952Y-79110000D01*
X141353952Y-80910000D01*
X141378087Y-81155043D01*
X141449563Y-81390669D01*
X141565634Y-81607823D01*
X141721840Y-81798160D01*
X141912177Y-81954366D01*
X142060000Y-82033379D01*
X142060001Y-83112268D01*
X141948216Y-83186960D01*
X141606960Y-83528216D01*
X141338838Y-83929490D01*
X141154152Y-84375361D01*
X141060000Y-84848696D01*
X141060000Y-85331304D01*
X141154152Y-85804639D01*
X141338838Y-86250510D01*
X141606960Y-86651784D01*
X141948216Y-86993040D01*
X142349490Y-87261162D01*
X142795361Y-87445848D01*
X143268696Y-87540000D01*
X143751304Y-87540000D01*
X144224639Y-87445848D01*
X144670510Y-87261162D01*
X145071784Y-86993040D01*
X145413040Y-86651784D01*
X145681162Y-86250510D01*
X145865848Y-85804639D01*
X145960000Y-85331304D01*
X145960000Y-84848696D01*
X145865848Y-84375361D01*
X145681162Y-83929490D01*
X145413040Y-83528216D01*
X145071784Y-83186960D01*
X144960000Y-83112269D01*
X144960000Y-82033379D01*
X145107823Y-81954366D01*
X145298160Y-81798160D01*
X145454366Y-81607823D01*
X145570437Y-81390669D01*
X145641913Y-81155043D01*
X145666048Y-80910000D01*
X145666048Y-79110000D01*
X145641913Y-78864957D01*
X145570437Y-78629331D01*
X145454366Y-78412177D01*
X145449391Y-78406115D01*
X145577377Y-78097132D01*
X145660000Y-77681757D01*
X145660000Y-77258243D01*
X145577377Y-76842868D01*
X145415305Y-76451593D01*
X145180014Y-76099455D01*
X144880545Y-75799986D01*
X144528407Y-75564695D01*
X144137132Y-75402623D01*
X143721757Y-75320000D01*
X143410610Y-75320000D01*
X140062031Y-71971422D01*
X140163699Y-72013534D01*
X140598394Y-72100000D01*
X141041606Y-72100000D01*
X141476301Y-72013534D01*
X141885775Y-71843924D01*
X142254292Y-71597689D01*
X142551981Y-71300000D01*
X145588019Y-71300000D01*
X145885708Y-71597689D01*
X146254225Y-71843924D01*
X146663699Y-72013534D01*
X147098394Y-72100000D01*
X147541606Y-72100000D01*
X147976301Y-72013534D01*
X148340000Y-71862885D01*
X148340000Y-106430000D01*
X106930000Y-106430000D01*
X106930000Y-102093156D01*
X107071962Y-102188012D01*
X107438122Y-102339681D01*
X107826836Y-102417001D01*
X108223166Y-102417001D01*
X108611880Y-102339681D01*
X108978040Y-102188012D01*
X109307576Y-101967823D01*
X109420398Y-101855001D01*
X109964392Y-101855001D01*
X111954334Y-103844944D01*
X111999735Y-103900265D01*
X112055055Y-103945665D01*
X112055058Y-103945668D01*
X112174092Y-104043356D01*
X112220526Y-104081464D01*
X112472424Y-104216106D01*
X112745750Y-104299019D01*
X112958775Y-104320000D01*
X112958784Y-104320000D01*
X113029999Y-104327014D01*
X113101214Y-104320000D01*
X143438775Y-104320000D01*
X143510000Y-104327015D01*
X143794250Y-104299019D01*
X144067576Y-104216106D01*
X144319474Y-104081464D01*
X144540265Y-103900265D01*
X144721464Y-103679474D01*
X144856106Y-103427576D01*
X144939019Y-103154250D01*
X144960000Y-102941225D01*
X144967015Y-102870000D01*
X144960000Y-102798775D01*
X144960000Y-101849849D01*
X145141177Y-101668672D01*
X145370996Y-101324723D01*
X145529298Y-100942547D01*
X145610000Y-100536832D01*
X145610000Y-100123168D01*
X145529298Y-99717453D01*
X145370996Y-99335277D01*
X145141177Y-98991328D01*
X144848672Y-98698823D01*
X144504723Y-98469004D01*
X144122547Y-98310702D01*
X143716832Y-98230000D01*
X143303168Y-98230000D01*
X142897453Y-98310702D01*
X142515277Y-98469004D01*
X142171328Y-98698823D01*
X141878823Y-98991328D01*
X141649004Y-99335277D01*
X141490702Y-99717453D01*
X141410000Y-100123168D01*
X141410000Y-100536832D01*
X141490702Y-100942547D01*
X141649004Y-101324723D01*
X141712666Y-101420000D01*
X137706612Y-101420000D01*
X137748012Y-101358040D01*
X137899681Y-100991880D01*
X137977001Y-100603166D01*
X137977001Y-100206836D01*
X137899681Y-99818122D01*
X137748012Y-99451962D01*
X137536225Y-99135001D01*
X137748012Y-98818040D01*
X137899681Y-98451880D01*
X137977001Y-98063166D01*
X137977001Y-97666836D01*
X137899681Y-97278122D01*
X137748012Y-96911962D01*
X137536225Y-96595001D01*
X137748012Y-96278040D01*
X137899681Y-95911880D01*
X137977001Y-95523166D01*
X137977001Y-95126836D01*
X137899681Y-94738122D01*
X137748012Y-94371962D01*
X137536225Y-94055001D01*
X137748012Y-93738040D01*
X137899681Y-93371880D01*
X137977001Y-92983166D01*
X137977001Y-92586836D01*
X137899681Y-92198122D01*
X137748012Y-91831962D01*
X137536225Y-91515001D01*
X137748012Y-91198040D01*
X137899681Y-90831880D01*
X137977001Y-90443166D01*
X137977001Y-90046836D01*
X137899681Y-89658122D01*
X137748012Y-89291962D01*
X137536225Y-88975001D01*
X137748012Y-88658040D01*
X137899681Y-88291880D01*
X137977001Y-87903166D01*
X137977001Y-87506836D01*
X137899681Y-87118122D01*
X137748012Y-86751962D01*
X137536225Y-86435001D01*
X137748012Y-86118040D01*
X137899681Y-85751880D01*
X137977001Y-85363166D01*
X137977001Y-84966836D01*
X137899681Y-84578122D01*
X137748012Y-84211962D01*
X137536225Y-83895001D01*
X137748012Y-83578040D01*
X137899681Y-83211880D01*
X137977001Y-82823166D01*
X137977001Y-82426836D01*
X137899681Y-82038122D01*
X137748012Y-81671962D01*
X137527823Y-81342426D01*
X137247576Y-81062179D01*
X136918040Y-80841990D01*
X136551880Y-80690321D01*
X136163166Y-80613001D01*
X135766836Y-80613001D01*
X135378122Y-80690321D01*
X135011962Y-80841990D01*
X134682426Y-81062179D01*
X134402179Y-81342426D01*
X134181990Y-81671962D01*
X134030321Y-82038122D01*
X133953001Y-82426836D01*
X133953001Y-82823166D01*
X134030321Y-83211880D01*
X134181990Y-83578040D01*
X134393777Y-83895001D01*
X134181990Y-84211962D01*
X134030321Y-84578122D01*
X133953001Y-84966836D01*
X133953001Y-85363166D01*
X134030321Y-85751880D01*
X134181990Y-86118040D01*
X134393777Y-86435001D01*
X134181990Y-86751962D01*
X134030321Y-87118122D01*
X133953001Y-87506836D01*
X133953001Y-87903166D01*
X134030321Y-88291880D01*
X134181990Y-88658040D01*
X134393777Y-88975001D01*
X134181990Y-89291962D01*
X134030321Y-89658122D01*
X133953001Y-90046836D01*
X133953001Y-90443166D01*
X134030321Y-90831880D01*
X134181990Y-91198040D01*
X134393777Y-91515001D01*
X134181990Y-91831962D01*
X134030321Y-92198122D01*
X133953001Y-92586836D01*
X133953001Y-92983166D01*
X134030321Y-93371880D01*
X134181990Y-93738040D01*
X134393777Y-94055001D01*
X134181990Y-94371962D01*
X134030321Y-94738122D01*
X133953001Y-95126836D01*
X133953001Y-95523166D01*
X134030321Y-95911880D01*
X134181990Y-96278040D01*
X134393777Y-96595001D01*
X134181990Y-96911962D01*
X134030321Y-97278122D01*
X133953001Y-97666836D01*
X133953001Y-98063166D01*
X134030321Y-98451880D01*
X134181990Y-98818040D01*
X134393777Y-99135001D01*
X134181990Y-99451962D01*
X134030321Y-99818122D01*
X133953001Y-100206836D01*
X133953001Y-100603166D01*
X134030321Y-100991880D01*
X134181990Y-101358040D01*
X134223390Y-101420000D01*
X113630610Y-101420000D01*
X111565660Y-99355051D01*
X111520264Y-99299736D01*
X111464949Y-99254340D01*
X111464941Y-99254332D01*
X111299473Y-99118536D01*
X111047574Y-98983894D01*
X110774249Y-98900982D01*
X110490000Y-98872986D01*
X110489999Y-98872986D01*
X110205750Y-98900982D01*
X110027673Y-98955001D01*
X109420398Y-98955001D01*
X109307576Y-98842179D01*
X108978040Y-98621990D01*
X108611880Y-98470321D01*
X108223166Y-98393001D01*
X107826836Y-98393001D01*
X107438122Y-98470321D01*
X107071962Y-98621990D01*
X106930000Y-98716846D01*
X106930000Y-97013156D01*
X107071962Y-97108012D01*
X107438122Y-97259681D01*
X107826836Y-97337001D01*
X108223166Y-97337001D01*
X108611880Y-97259681D01*
X108978040Y-97108012D01*
X109307576Y-96887823D01*
X109587823Y-96607576D01*
X109808012Y-96278040D01*
X109959681Y-95911880D01*
X110037001Y-95523166D01*
X110037001Y-95126836D01*
X109959681Y-94738122D01*
X109808012Y-94371962D01*
X109596225Y-94055001D01*
X109808012Y-93738040D01*
X109959681Y-93371880D01*
X110037001Y-92983166D01*
X110037001Y-92586836D01*
X109959681Y-92198122D01*
X109808012Y-91831962D01*
X109656431Y-91605105D01*
X109702575Y-91591107D01*
X109954473Y-91456465D01*
X110175264Y-91275266D01*
X110220669Y-91219940D01*
X111464944Y-89975665D01*
X111520264Y-89930265D01*
X111701464Y-89709474D01*
X111836106Y-89457576D01*
X111919019Y-89184250D01*
X111940000Y-88971225D01*
X111940000Y-88971217D01*
X111947014Y-88900000D01*
X111940000Y-88828783D01*
X111940000Y-66640609D01*
X116170610Y-62410000D01*
X139370000Y-62410000D01*
X139370001Y-63618018D01*
G37*
X139370001Y-63618018D02*
X139268834Y-63719185D01*
X139164473Y-63633537D01*
X138912575Y-63498895D01*
X138639249Y-63415982D01*
X138426224Y-63395001D01*
X138426214Y-63395001D01*
X138354999Y-63387987D01*
X138283784Y-63395001D01*
X137360398Y-63395001D01*
X137247576Y-63282179D01*
X136918040Y-63061990D01*
X136551880Y-62910321D01*
X136163166Y-62833001D01*
X135766836Y-62833001D01*
X135378122Y-62910321D01*
X135011962Y-63061990D01*
X134682426Y-63282179D01*
X134569604Y-63395001D01*
X124456213Y-63395001D01*
X124384998Y-63387987D01*
X124313783Y-63395001D01*
X124313774Y-63395001D01*
X124100749Y-63415982D01*
X123827423Y-63498895D01*
X123708565Y-63562426D01*
X123575525Y-63633537D01*
X123410057Y-63769333D01*
X123410054Y-63769336D01*
X123354734Y-63814736D01*
X123309333Y-63870057D01*
X120945057Y-66234334D01*
X120889735Y-66279736D01*
X120844335Y-66335056D01*
X120844332Y-66335059D01*
X120764806Y-66431962D01*
X120708536Y-66500527D01*
X120573894Y-66752425D01*
X120490981Y-67025751D01*
X120470000Y-67238776D01*
X120470000Y-67238785D01*
X120462986Y-67310000D01*
X120470000Y-67381215D01*
X120470001Y-70412268D01*
X120358216Y-70486960D01*
X120016960Y-70828216D01*
X119748838Y-71229490D01*
X119564152Y-71675361D01*
X119470000Y-72148696D01*
X119470000Y-72631304D01*
X119564152Y-73104639D01*
X119748838Y-73550510D01*
X120016960Y-73951784D01*
X120358216Y-74293040D01*
X120759490Y-74561162D01*
X121205361Y-74745848D01*
X121678696Y-74840000D01*
X122161304Y-74840000D01*
X122634639Y-74745848D01*
X123080510Y-74561162D01*
X123481784Y-74293040D01*
X123823040Y-73951784D01*
X124091162Y-73550510D01*
X124275848Y-73104639D01*
X124370000Y-72631304D01*
X124370000Y-72148696D01*
X124275848Y-71675361D01*
X124091162Y-71229490D01*
X123823040Y-70828216D01*
X123481784Y-70486960D01*
X123370000Y-70412269D01*
X123370000Y-67910609D01*
X124985609Y-66295001D01*
X134273504Y-66295001D01*
X134181990Y-66431962D01*
X134030321Y-66798122D01*
X133953001Y-67186836D01*
X133953001Y-67583166D01*
X134030321Y-67971880D01*
X134181990Y-68338040D01*
X134393777Y-68655001D01*
X134181990Y-68971962D01*
X134030321Y-69338122D01*
X133953001Y-69726836D01*
X133953001Y-70123166D01*
X134030321Y-70511880D01*
X134181990Y-70878040D01*
X134393777Y-71195001D01*
X134181990Y-71511962D01*
X134030321Y-71878122D01*
X133953001Y-72266836D01*
X133953001Y-72663166D01*
X134030321Y-73051880D01*
X134181990Y-73418040D01*
X134393777Y-73735001D01*
X134181990Y-74051962D01*
X134030321Y-74418122D01*
X133953001Y-74806836D01*
X133953001Y-75203166D01*
X134030321Y-75591880D01*
X134181990Y-75958040D01*
X134393777Y-76275001D01*
X134181990Y-76591962D01*
X134030321Y-76958122D01*
X133953001Y-77346836D01*
X133953001Y-77743166D01*
X134030321Y-78131880D01*
X134181990Y-78498040D01*
X134402179Y-78827576D01*
X134682426Y-79107823D01*
X135011962Y-79328012D01*
X135378122Y-79479681D01*
X135766836Y-79557001D01*
X136163166Y-79557001D01*
X136551880Y-79479681D01*
X136918040Y-79328012D01*
X137247576Y-79107823D01*
X137527823Y-78827576D01*
X137748012Y-78498040D01*
X137899681Y-78131880D01*
X137977001Y-77743166D01*
X137977001Y-77346836D01*
X137899681Y-76958122D01*
X137748012Y-76591962D01*
X137536225Y-76275001D01*
X137748012Y-75958040D01*
X137899681Y-75591880D01*
X137977001Y-75203166D01*
X137977001Y-74806836D01*
X137899681Y-74418122D01*
X137748012Y-74051962D01*
X137536225Y-73735001D01*
X137611594Y-73622203D01*
X141360000Y-77370610D01*
X141360000Y-77681757D01*
X141442623Y-78097132D01*
X141570609Y-78406115D01*
X141565634Y-78412177D01*
X141449563Y-78629331D01*
X141378087Y-78864957D01*
X141353952Y-79110000D01*
X141353952Y-80910000D01*
X141378087Y-81155043D01*
X141449563Y-81390669D01*
X141565634Y-81607823D01*
X141721840Y-81798160D01*
X141912177Y-81954366D01*
X142060000Y-82033379D01*
X142060001Y-83112268D01*
X141948216Y-83186960D01*
X141606960Y-83528216D01*
X141338838Y-83929490D01*
X141154152Y-84375361D01*
X141060000Y-84848696D01*
X141060000Y-85331304D01*
X141154152Y-85804639D01*
X141338838Y-86250510D01*
X141606960Y-86651784D01*
X141948216Y-86993040D01*
X142349490Y-87261162D01*
X142795361Y-87445848D01*
X143268696Y-87540000D01*
X143751304Y-87540000D01*
X144224639Y-87445848D01*
X144670510Y-87261162D01*
X145071784Y-86993040D01*
X145413040Y-86651784D01*
X145681162Y-86250510D01*
X145865848Y-85804639D01*
X145960000Y-85331304D01*
X145960000Y-84848696D01*
X145865848Y-84375361D01*
X145681162Y-83929490D01*
X145413040Y-83528216D01*
X145071784Y-83186960D01*
X144960000Y-83112269D01*
X144960000Y-82033379D01*
X145107823Y-81954366D01*
X145298160Y-81798160D01*
X145454366Y-81607823D01*
X145570437Y-81390669D01*
X145641913Y-81155043D01*
X145666048Y-80910000D01*
X145666048Y-79110000D01*
X145641913Y-78864957D01*
X145570437Y-78629331D01*
X145454366Y-78412177D01*
X145449391Y-78406115D01*
X145577377Y-78097132D01*
X145660000Y-77681757D01*
X145660000Y-77258243D01*
X145577377Y-76842868D01*
X145415305Y-76451593D01*
X145180014Y-76099455D01*
X144880545Y-75799986D01*
X144528407Y-75564695D01*
X144137132Y-75402623D01*
X143721757Y-75320000D01*
X143410610Y-75320000D01*
X140062031Y-71971422D01*
X140163699Y-72013534D01*
X140598394Y-72100000D01*
X141041606Y-72100000D01*
X141476301Y-72013534D01*
X141885775Y-71843924D01*
X142254292Y-71597689D01*
X142551981Y-71300000D01*
X145588019Y-71300000D01*
X145885708Y-71597689D01*
X146254225Y-71843924D01*
X146663699Y-72013534D01*
X147098394Y-72100000D01*
X147541606Y-72100000D01*
X147976301Y-72013534D01*
X148340000Y-71862885D01*
X148340000Y-106430000D01*
X106930000Y-106430000D01*
X106930000Y-102093156D01*
X107071962Y-102188012D01*
X107438122Y-102339681D01*
X107826836Y-102417001D01*
X108223166Y-102417001D01*
X108611880Y-102339681D01*
X108978040Y-102188012D01*
X109307576Y-101967823D01*
X109420398Y-101855001D01*
X109964392Y-101855001D01*
X111954334Y-103844944D01*
X111999735Y-103900265D01*
X112055055Y-103945665D01*
X112055058Y-103945668D01*
X112174092Y-104043356D01*
X112220526Y-104081464D01*
X112472424Y-104216106D01*
X112745750Y-104299019D01*
X112958775Y-104320000D01*
X112958784Y-104320000D01*
X113029999Y-104327014D01*
X113101214Y-104320000D01*
X143438775Y-104320000D01*
X143510000Y-104327015D01*
X143794250Y-104299019D01*
X144067576Y-104216106D01*
X144319474Y-104081464D01*
X144540265Y-103900265D01*
X144721464Y-103679474D01*
X144856106Y-103427576D01*
X144939019Y-103154250D01*
X144960000Y-102941225D01*
X144967015Y-102870000D01*
X144960000Y-102798775D01*
X144960000Y-101849849D01*
X145141177Y-101668672D01*
X145370996Y-101324723D01*
X145529298Y-100942547D01*
X145610000Y-100536832D01*
X145610000Y-100123168D01*
X145529298Y-99717453D01*
X145370996Y-99335277D01*
X145141177Y-98991328D01*
X144848672Y-98698823D01*
X144504723Y-98469004D01*
X144122547Y-98310702D01*
X143716832Y-98230000D01*
X143303168Y-98230000D01*
X142897453Y-98310702D01*
X142515277Y-98469004D01*
X142171328Y-98698823D01*
X141878823Y-98991328D01*
X141649004Y-99335277D01*
X141490702Y-99717453D01*
X141410000Y-100123168D01*
X141410000Y-100536832D01*
X141490702Y-100942547D01*
X141649004Y-101324723D01*
X141712666Y-101420000D01*
X137706612Y-101420000D01*
X137748012Y-101358040D01*
X137899681Y-100991880D01*
X137977001Y-100603166D01*
X137977001Y-100206836D01*
X137899681Y-99818122D01*
X137748012Y-99451962D01*
X137536225Y-99135001D01*
X137748012Y-98818040D01*
X137899681Y-98451880D01*
X137977001Y-98063166D01*
X137977001Y-97666836D01*
X137899681Y-97278122D01*
X137748012Y-96911962D01*
X137536225Y-96595001D01*
X137748012Y-96278040D01*
X137899681Y-95911880D01*
X137977001Y-95523166D01*
X137977001Y-95126836D01*
X137899681Y-94738122D01*
X137748012Y-94371962D01*
X137536225Y-94055001D01*
X137748012Y-93738040D01*
X137899681Y-93371880D01*
X137977001Y-92983166D01*
X137977001Y-92586836D01*
X137899681Y-92198122D01*
X137748012Y-91831962D01*
X137536225Y-91515001D01*
X137748012Y-91198040D01*
X137899681Y-90831880D01*
X137977001Y-90443166D01*
X137977001Y-90046836D01*
X137899681Y-89658122D01*
X137748012Y-89291962D01*
X137536225Y-88975001D01*
X137748012Y-88658040D01*
X137899681Y-88291880D01*
X137977001Y-87903166D01*
X137977001Y-87506836D01*
X137899681Y-87118122D01*
X137748012Y-86751962D01*
X137536225Y-86435001D01*
X137748012Y-86118040D01*
X137899681Y-85751880D01*
X137977001Y-85363166D01*
X137977001Y-84966836D01*
X137899681Y-84578122D01*
X137748012Y-84211962D01*
X137536225Y-83895001D01*
X137748012Y-83578040D01*
X137899681Y-83211880D01*
X137977001Y-82823166D01*
X137977001Y-82426836D01*
X137899681Y-82038122D01*
X137748012Y-81671962D01*
X137527823Y-81342426D01*
X137247576Y-81062179D01*
X136918040Y-80841990D01*
X136551880Y-80690321D01*
X136163166Y-80613001D01*
X135766836Y-80613001D01*
X135378122Y-80690321D01*
X135011962Y-80841990D01*
X134682426Y-81062179D01*
X134402179Y-81342426D01*
X134181990Y-81671962D01*
X134030321Y-82038122D01*
X133953001Y-82426836D01*
X133953001Y-82823166D01*
X134030321Y-83211880D01*
X134181990Y-83578040D01*
X134393777Y-83895001D01*
X134181990Y-84211962D01*
X134030321Y-84578122D01*
X133953001Y-84966836D01*
X133953001Y-85363166D01*
X134030321Y-85751880D01*
X134181990Y-86118040D01*
X134393777Y-86435001D01*
X134181990Y-86751962D01*
X134030321Y-87118122D01*
X133953001Y-87506836D01*
X133953001Y-87903166D01*
X134030321Y-88291880D01*
X134181990Y-88658040D01*
X134393777Y-88975001D01*
X134181990Y-89291962D01*
X134030321Y-89658122D01*
X133953001Y-90046836D01*
X133953001Y-90443166D01*
X134030321Y-90831880D01*
X134181990Y-91198040D01*
X134393777Y-91515001D01*
X134181990Y-91831962D01*
X134030321Y-92198122D01*
X133953001Y-92586836D01*
X133953001Y-92983166D01*
X134030321Y-93371880D01*
X134181990Y-93738040D01*
X134393777Y-94055001D01*
X134181990Y-94371962D01*
X134030321Y-94738122D01*
X133953001Y-95126836D01*
X133953001Y-95523166D01*
X134030321Y-95911880D01*
X134181990Y-96278040D01*
X134393777Y-96595001D01*
X134181990Y-96911962D01*
X134030321Y-97278122D01*
X133953001Y-97666836D01*
X133953001Y-98063166D01*
X134030321Y-98451880D01*
X134181990Y-98818040D01*
X134393777Y-99135001D01*
X134181990Y-99451962D01*
X134030321Y-99818122D01*
X133953001Y-100206836D01*
X133953001Y-100603166D01*
X134030321Y-100991880D01*
X134181990Y-101358040D01*
X134223390Y-101420000D01*
X113630610Y-101420000D01*
X111565660Y-99355051D01*
X111520264Y-99299736D01*
X111464949Y-99254340D01*
X111464941Y-99254332D01*
X111299473Y-99118536D01*
X111047574Y-98983894D01*
X110774249Y-98900982D01*
X110490000Y-98872986D01*
X110489999Y-98872986D01*
X110205750Y-98900982D01*
X110027673Y-98955001D01*
X109420398Y-98955001D01*
X109307576Y-98842179D01*
X108978040Y-98621990D01*
X108611880Y-98470321D01*
X108223166Y-98393001D01*
X107826836Y-98393001D01*
X107438122Y-98470321D01*
X107071962Y-98621990D01*
X106930000Y-98716846D01*
X106930000Y-97013156D01*
X107071962Y-97108012D01*
X107438122Y-97259681D01*
X107826836Y-97337001D01*
X108223166Y-97337001D01*
X108611880Y-97259681D01*
X108978040Y-97108012D01*
X109307576Y-96887823D01*
X109587823Y-96607576D01*
X109808012Y-96278040D01*
X109959681Y-95911880D01*
X110037001Y-95523166D01*
X110037001Y-95126836D01*
X109959681Y-94738122D01*
X109808012Y-94371962D01*
X109596225Y-94055001D01*
X109808012Y-93738040D01*
X109959681Y-93371880D01*
X110037001Y-92983166D01*
X110037001Y-92586836D01*
X109959681Y-92198122D01*
X109808012Y-91831962D01*
X109656431Y-91605105D01*
X109702575Y-91591107D01*
X109954473Y-91456465D01*
X110175264Y-91275266D01*
X110220669Y-91219940D01*
X111464944Y-89975665D01*
X111520264Y-89930265D01*
X111701464Y-89709474D01*
X111836106Y-89457576D01*
X111919019Y-89184250D01*
X111940000Y-88971225D01*
X111940000Y-88971217D01*
X111947014Y-88900000D01*
X111940000Y-88828783D01*
X111940000Y-66640609D01*
X116170610Y-62410000D01*
X139370000Y-62410000D01*
X139370001Y-63618018D01*
M02*
